<?xml version="1.0" standalone="no"?>
<!DOCTYPE svg PUBLIC "-//W3C//DTD SVG 20010904//EN"
 "http://www.w3.org/TR/2001/REC-SVG-20010904/DTD/svg10.dtd">
<svg version="1.0" xmlns="http://www.w3.org/2000/svg"
 width="1024.000000pt" height="252.000000pt" viewBox="0 0 1024.000000 252.000000"
 preserveAspectRatio="xMidYMid meet">

<g transform="translate(0.000000,252.000000) scale(0.100000,-0.100000)"
fill="#000000" stroke="none">
<path d="M660 2170 c0 -5 5 -10 10 -10 6 0 10 5 10 10 0 6 -4 10 -10 10 -5 0
-10 -4 -10 -10z"/>
<path d="M700 2122 l0 -59 32 -1 c39 -1 58 13 58 43 0 29 -24 49 -50 42 -15
-4 -20 0 -20 14 0 10 -4 19 -10 19 -6 0 -10 -26 -10 -58z m74 -5 c16 -25 -16
-56 -38 -37 -19 15 -20 32 -4 48 15 15 28 11 42 -11z"/>
<path d="M2213 2120 c0 -36 2 -50 4 -32 2 17 2 47 0 65 -2 17 -4 3 -4 -33z"/>
<path d="M2743 2120 c0 -36 2 -50 4 -32 2 17 2 47 0 65 -2 17 -4 3 -4 -33z"/>
<path d="M2891 2124 l-1 -61 36 2 c51 1 70 37 38 70 -11 10 -25 14 -40 11 -18
-5 -24 -1 -27 16 -2 13 -5 -4 -6 -38z m53 10 c21 -8 21 -50 0 -58 -32 -12 -57
27 -32 52 14 14 12 14 32 6z"/>
<path d="M2990 2120 c0 -33 4 -60 10 -60 6 0 10 27 10 60 0 33 -4 60 -10 60
-6 0 -10 -27 -10 -60z"/>
<path d="M3182 2163 c-4 -10 -5 -38 -1 -63 l6 -45 1 42 c1 23 8 44 15 46 9 4
8 6 -2 6 -11 1 -11 4 -1 16 8 10 9 15 2 15 -6 0 -15 -8 -20 -17z"/>
<path d="M4073 2120 c0 -36 1 -57 4 -47 5 21 22 22 29 2 4 -8 11 -15 16 -15 6
0 4 10 -4 22 -14 20 -14 25 -1 45 9 13 11 23 5 23 -5 0 -12 -7 -16 -15 -9 -26
-25 -17 -29 18 -2 17 -4 3 -4 -33z"/>
<path d="M583 2164 c-24 -10 -14 -42 17 -53 17 -5 30 -14 30 -20 0 -17 -20
-23 -36 -10 -8 6 -18 9 -21 5 -11 -10 19 -27 42 -24 32 4 32 46 1 58 -14 5
-26 16 -26 25 0 18 21 20 39 3 11 -11 13 -10 9 2 -5 16 -34 23 -55 14z"/>
<path d="M1732 2118 c-2 -57 -2 -58 26 -57 23 0 24 1 7 8 -15 6 -22 20 -26 57
l-6 49 -1 -57z"/>
<path d="M4908 2160 c-2 -7 -1 -31 2 -54 4 -31 10 -41 25 -44 18 -2 18 -2 3 8
-11 6 -18 23 -18 40 0 22 5 30 18 31 13 0 14 2 2 6 -8 3 -18 10 -21 16 -4 5
-8 4 -11 -3z"/>
<path d="M660 2105 c0 -25 5 -45 10 -45 6 0 10 20 10 45 0 25 -4 45 -10 45 -5
0 -10 -20 -10 -45z"/>
<path d="M822 2138 c-16 -16 -15 -53 3 -68 19 -16 45 -10 61 15 26 39 -31 86
-64 53z m52 -21 c16 -25 -16 -56 -38 -37 -19 15 -20 32 -4 48 15 15 28 11 42
-11z"/>
<path d="M910 2104 c0 -54 18 -59 22 -6 2 29 7 37 23 37 16 0 21 -9 26 -40 l7
-40 -2 45 c-1 45 -1 45 -38 47 l-38 1 0 -44z"/>
<path d="M1019 2129 c-8 -16 -8 -28 0 -46 10 -21 16 -24 41 -19 32 6 39 -4 16
-23 -11 -9 -20 -10 -35 -1 -14 7 -21 7 -21 1 0 -17 49 -25 65 -11 10 8 15 31
15 64 l0 51 -35 2 c-26 2 -37 -2 -46 -18z m60 -8 c14 -24 -8 -55 -32 -45 -17
6 -24 44 -10 57 12 13 32 7 42 -12z"/>
<path d="M1120 2124 c0 -43 17 -65 50 -62 29 2 30 4 29 48 l-1 45 -8 -38 c-8
-44 -14 -51 -35 -44 -9 4 -15 19 -15 42 0 19 -4 35 -10 35 -5 0 -10 -12 -10
-26z"/>
<path d="M1231 2101 l1 -46 8 38 c8 44 14 51 35 44 9 -4 15 -19 15 -42 0 -47
18 -45 22 3 2 25 8 37 18 37 10 0 16 -12 18 -37 4 -47 22 -50 22 -4 0 45 -14
54 -82 53 l-58 -1 1 -45z"/>
<path d="M1390 2116 c0 -40 17 -57 54 -54 24 2 26 6 25 48 -1 44 -1 44 -9 12
-15 -64 -50 -68 -50 -6 0 19 -4 34 -10 34 -5 0 -10 -15 -10 -34z"/>
<path d="M1497 2144 c-15 -15 -6 -34 18 -40 14 -3 25 -12 25 -20 0 -17 -22
-18 -39 -1 -11 10 -13 9 -9 -3 3 -9 17 -15 34 -15 35 0 40 25 7 40 -13 5 -23
15 -23 22 0 16 12 17 29 1 11 -11 13 -10 9 2 -5 16 -39 25 -51 14z"/>
<path d="M1579 2129 c-8 -16 -8 -28 0 -45 9 -20 17 -24 46 -22 34 3 35 4 35
43 0 38 -1 40 -35 42 -26 2 -37 -2 -46 -18z m60 -8 c13 -24 -9 -57 -33 -48
-19 7 -22 53 -3 60 21 9 26 7 36 -12z"/>
<path d="M1804 2110 c1 -45 1 -45 39 -47 l37 -1 0 44 c0 54 -18 59 -22 7 -2
-30 -7 -38 -23 -38 -16 0 -21 9 -26 40 l-7 40 2 -45z"/>
<path d="M1901 2100 c1 -44 1 -44 9 -12 15 64 50 68 50 6 0 -19 5 -34 10 -34
15 0 12 66 -4 79 -7 6 -25 10 -40 9 -24 -2 -26 -6 -25 -48z"/>
<path d="M2012 2138 c-30 -30 -2 -85 38 -75 12 3 20 0 20 -8 0 -17 -31 -28
-44 -15 -16 16 -30 12 -16 -5 7 -8 21 -15 31 -15 31 0 49 28 49 79 0 47 0 48
-33 49 -19 1 -39 -4 -45 -10z m42 -4 c20 -8 21 -38 1 -54 -29 -24 -60 21 -33
48 14 14 12 14 32 6z"/>
<path d="M2121 2141 c-7 -5 -13 -21 -13 -36 0 -15 6 -31 13 -36 20 -13 52 -7
57 11 4 12 3 13 -10 2 -9 -7 -23 -10 -32 -6 -28 11 -17 24 19 24 36 0 46 15
23 38 -14 14 -37 15 -57 3z m47 -19 c2 -7 -7 -12 -22 -12 -27 0 -35 15 -13 23
17 7 30 3 35 -11z"/>
<path d="M2257 2129 c-20 -27 -10 -58 19 -65 30 -8 54 11 54 40 0 46 -48 62
-73 25z m57 -12 c8 -12 7 -21 -5 -32 -21 -21 -49 -9 -49 20 0 36 34 44 54 12z"/>
<path d="M2402 2138 c-16 -16 -15 -53 1 -66 7 -6 27 -10 45 -10 31 1 32 3 32
43 0 40 -1 42 -33 43 -19 1 -39 -4 -45 -10z m42 -4 c21 -8 21 -53 0 -61 -24
-9 -46 24 -33 48 11 21 11 21 33 13z"/>
<path d="M2509 2105 c9 -25 20 -45 26 -45 6 0 17 20 26 45 20 54 8 61 -13 8
l-14 -38 -13 38 c-7 20 -16 37 -21 37 -4 0 0 -20 9 -45z"/>
<path d="M2602 2138 c-16 -16 -15 -53 1 -66 7 -6 27 -10 45 -10 31 1 32 3 32
43 0 40 -1 42 -33 43 -19 1 -39 -4 -45 -10z m46 -10 c17 -17 15 -45 -4 -52
-18 -7 -44 10 -44 28 0 13 20 36 30 36 3 0 11 -5 18 -12z"/>
<path d="M2703 2105 c0 -27 2 -38 4 -22 2 15 2 37 0 50 -2 12 -4 0 -4 -28z"/>
<path d="M2779 2129 c-8 -16 -8 -28 0 -45 9 -20 17 -24 46 -22 34 3 35 4 35
43 0 38 -1 40 -35 42 -26 2 -37 -2 -46 -18z m60 -8 c13 -24 -9 -57 -33 -48
-19 7 -22 53 -3 60 21 9 26 7 36 -12z"/>
<path d="M3042 2138 c-17 -17 -15 -53 3 -68 17 -14 65 -6 65 11 0 8 -5 7 -15
-1 -16 -13 -45 -7 -45 10 0 5 14 10 30 10 23 0 30 5 30 19 0 29 -45 42 -68 19z
m42 -4 c25 -9 19 -24 -9 -24 -24 0 -32 10 -18 23 8 8 8 8 27 1z"/>
<path d="M3236 2134 c-19 -18 -20 -28 -6 -55 20 -37 80 -18 80 26 0 42 -44 59
-74 29z m53 -13 c13 -24 -9 -57 -33 -48 -16 6 -22 47 -9 60 12 13 32 7 42 -12z"/>
<path d="M3331 2100 l1 -45 8 35 c5 19 13 36 19 38 19 6 12 21 -9 19 -17 -1
-20 -8 -19 -47z"/>
<path d="M3442 2138 c-16 -16 -15 -53 1 -66 7 -6 27 -10 45 -10 31 1 32 3 32
43 0 40 -1 42 -33 43 -19 1 -39 -4 -45 -10z m46 -10 c17 -17 15 -45 -4 -52
-18 -7 -44 10 -44 28 0 13 20 36 30 36 3 0 11 -5 18 -12z"/>
<path d="M3541 2100 c1 -44 1 -44 9 -12 15 64 50 68 50 6 0 -19 5 -34 10 -34
15 0 12 66 -4 79 -7 6 -25 10 -40 9 -24 -2 -26 -6 -25 -48z"/>
<path d="M3649 2107 c12 -28 16 -49 10 -65 -5 -12 -5 -22 0 -22 4 0 19 29 33
65 15 36 22 65 18 65 -5 0 -14 -17 -21 -37 l-12 -37 -14 37 c-9 20 -19 37 -24
37 -4 0 0 -19 10 -43z"/>
<path d="M3770 2145 c0 -22 21 -85 29 -85 4 0 13 15 18 33 10 33 13 31 29 -20
6 -22 21 -14 27 15 3 15 9 36 13 46 5 12 4 17 -3 13 -6 -4 -14 -21 -18 -39
l-7 -33 -10 38 c-12 45 -26 48 -34 7 -7 -32 -24 -41 -24 -12 0 18 -20 55 -20
37z"/>
<path d="M3916 2134 c-19 -18 -20 -28 -6 -55 20 -37 80 -18 80 26 0 42 -44 59
-74 29z m53 -13 c13 -24 -9 -57 -33 -48 -16 6 -22 47 -9 60 12 13 32 7 42 -12z"/>
<path d="M4011 2100 l1 -45 8 35 c5 19 13 36 19 38 19 6 12 21 -9 19 -17 -1
-20 -8 -19 -47z"/>
<path d="M4202 2138 c-27 -27 -7 -78 29 -78 21 0 49 26 49 45 0 35 -53 58 -78
33z m42 -4 c21 -8 20 -50 -1 -58 -24 -10 -46 21 -32 45 11 21 11 21 33 13z"/>
<path d="M4290 2104 c0 -24 5 -44 10 -44 6 0 10 14 10 31 0 18 7 37 17 44 15
11 14 13 -10 13 -25 0 -27 -3 -27 -44z"/>
<path d="M4401 2081 c1 -36 4 -54 6 -38 4 23 8 26 27 21 15 -3 29 1 40 11 32
33 13 69 -38 70 l-36 2 1 -66z m53 53 c21 -8 21 -50 0 -58 -32 -12 -57 27 -32
52 14 14 12 14 32 6z"/>
<path d="M4512 2100 c1 -37 2 -39 5 -12 3 18 11 36 19 39 21 8 17 22 -6 20
-17 -1 -20 -8 -18 -47z"/>
<path d="M4572 2138 c-27 -27 -7 -78 29 -78 21 0 49 26 49 45 0 35 -53 58 -78
33z m42 -4 c21 -8 20 -50 -1 -58 -24 -10 -46 21 -32 45 11 21 11 21 33 13z"/>
<path d="M4672 2100 c-1 -31 -7 -61 -14 -68 -9 -9 -9 -12 0 -12 19 0 24 21 19
81 l-3 54 -2 -55z"/>
<path d="M4709 2129 c-17 -34 4 -71 38 -67 14 2 29 10 31 18 5 13 3 13 -11 1
-18 -14 -47 -9 -47 9 0 5 16 10 35 10 38 0 40 2 25 31 -14 26 -56 25 -71 -2z
m59 -6 c2 -8 -6 -13 -22 -13 -25 0 -33 10 -19 24 10 10 36 3 41 -11z"/>
<path d="M4810 2129 c-18 -34 2 -71 37 -67 14 2 29 10 31 18 5 13 3 13 -11 1
-23 -19 -47 -7 -47 24 0 31 24 43 47 24 14 -12 16 -12 11 1 -8 25 -55 25 -68
-1z"/>
<path d="M4141 1384 c-5 -22 -15 -59 -21 -84 -6 -25 -14 -54 -17 -65 -3 -11
-2 -17 2 -13 8 8 55 191 50 196 -2 2 -8 -13 -14 -34z"/>
<path d="M667 1373 c-13 -22 -38 -115 -33 -120 3 -4 6 1 6 10 0 13 9 17 35 17
24 0 35 -5 35 -15 0 -8 4 -15 10 -15 5 0 0 26 -11 58 -23 61 -34 79 -42 65z
m27 -60 c6 -20 4 -23 -17 -23 -24 0 -25 1 -14 35 11 36 17 34 31 -12z"/>
<path d="M1629 1365 c-2 -11 -2 -40 1 -65 4 -35 9 -45 25 -48 18 -2 18 -2 3 8
-12 7 -18 23 -18 45 0 24 5 35 18 38 15 4 15 5 0 6 -9 0 -18 9 -20 19 -3 15
-4 14 -9 -3z"/>
<path d="M1852 1313 c0 -38 3 -54 5 -36 3 26 9 33 31 36 l27 4 -27 2 c-23 1
-28 6 -28 25 0 20 6 25 33 29 31 4 31 4 -5 5 l-38 2 2 -67z"/>
<path d="M2063 1315 c0 -38 2 -53 4 -32 2 20 2 52 0 70 -2 17 -4 1 -4 -38z"/>
<path d="M2103 1315 c0 -38 2 -53 4 -32 2 20 2 52 0 70 -2 17 -4 1 -4 -38z"/>
<path d="M2202 1368 c-21 -21 -13 -38 23 -55 19 -9 35 -23 35 -30 0 -20 -28
-27 -45 -13 -9 7 -18 10 -22 7 -3 -4 6 -12 21 -18 22 -11 29 -10 43 3 20 21
11 46 -21 58 -30 11 -37 22 -26 40 8 12 13 13 30 3 27 -18 39 -16 16 2 -24 18
-38 19 -54 3z"/>
<path d="M2299 1365 c-2 -11 -2 -40 1 -65 4 -35 9 -45 25 -48 18 -2 18 -2 3 8
-12 7 -18 23 -18 45 0 24 5 35 18 38 15 4 15 5 0 6 -9 0 -18 9 -20 19 -3 15
-4 14 -9 -3z"/>
<path d="M2603 1315 c0 -38 2 -59 4 -47 l5 24 25 -24 26 -23 -18 28 c-16 26
-16 28 0 55 l18 27 -26 -24 -26 -23 -4 38 c-2 22 -4 8 -4 -31z"/>
<path d="M2730 1376 c0 -22 33 -126 41 -126 5 0 9 7 9 15 0 8 -4 15 -10 15 -5
0 -12 17 -16 38 -6 36 -23 77 -24 58z"/>
<path d="M2791 1339 c-7 -23 -10 -43 -8 -46 3 -2 8 10 12 27 8 38 17 30 34
-29 7 -24 16 -40 21 -35 12 12 40 125 30 119 -5 -3 -11 -22 -15 -43 -11 -67
-22 -69 -36 -8 -7 31 -15 56 -19 56 -4 0 -12 -18 -19 -41z"/>
<path d="M3020 1316 l0 -64 41 2 c41 2 59 17 59 48 0 27 -30 50 -56 44 -19 -5
-24 -2 -24 14 0 11 -4 20 -10 20 -6 0 -10 -28 -10 -64z m80 4 c11 -21 -2 -60
-20 -60 -25 0 -40 15 -40 40 0 41 41 55 60 20z"/>
<path d="M3190 1315 c0 -64 0 -65 28 -65 43 0 72 26 72 65 0 39 -29 65 -72 65
-28 0 -28 -1 -28 -65z m71 45 c13 -7 19 -21 19 -45 0 -35 -20 -55 -54 -55 -13
0 -16 12 -16 55 0 59 9 67 51 45z"/>
<path d="M3640 1315 c0 -37 4 -65 10 -65 6 0 10 28 10 65 0 37 -4 65 -10 65
-6 0 -10 -28 -10 -65z"/>
<path d="M4192 1313 c0 -38 3 -54 5 -36 3 23 10 33 26 36 l22 4 -22 2 c-17 1
-23 7 -23 25 0 19 6 26 28 29 25 4 25 4 -5 6 l-33 1 2 -67z"/>
<path d="M4573 1315 c0 -38 2 -53 4 -32 2 20 2 52 0 70 -2 17 -4 1 -4 -38z"/>
<path d="M5190 1315 c0 -38 2 -66 5 -63 7 7 9 118 1 125 -3 3 -6 -24 -6 -62z"/>
<path d="M5520 1370 c0 -5 5 -10 10 -10 6 0 10 5 10 10 0 6 -4 10 -10 10 -5 0
-10 -4 -10 -10z"/>
<path d="M7300 1365 c-10 -10 -14 -30 -12 -65 5 -62 22 -66 22 -5 0 29 4 45
13 45 8 0 7 4 -3 10 -13 9 -13 11 0 20 8 5 10 10 5 10 -6 0 -17 -7 -25 -15z"/>
<path d="M7402 1315 c0 -38 2 -64 5 -57 2 6 9 9 15 6 5 -3 4 3 -4 15 -11 17
-11 25 0 42 8 12 9 18 3 15 -5 -4 -12 6 -14 21 -2 16 -4 -3 -5 -42z"/>
<path d="M7630 1370 c0 -5 5 -10 10 -10 6 0 10 5 10 10 0 6 -4 10 -10 10 -5 0
-10 -4 -10 -10z"/>
<path d="M7683 1315 c0 -38 2 -53 4 -32 2 20 2 52 0 70 -2 17 -4 1 -4 -38z"/>
<path d="M7800 1354 c0 -23 -2 -25 -15 -14 -26 22 -65 -3 -65 -40 0 -37 39
-62 64 -41 11 9 15 9 19 -1 3 -7 6 17 6 55 1 37 -1 67 -4 67 -3 0 -5 -12 -5
-26z m-12 -26 c17 -17 15 -43 -4 -59 -31 -26 -70 25 -44 56 15 18 32 19 48 3z"/>
<path d="M7840 1370 c0 -5 5 -10 10 -10 6 0 10 5 10 10 0 6 -4 10 -10 10 -5 0
-10 -4 -10 -10z"/>
<path d="M8171 1369 c-2 -26 29 -120 38 -114 5 2 14 25 20 50 6 25 13 45 16
45 3 0 10 -20 16 -45 6 -25 15 -48 20 -51 9 -5 43 100 37 118 -2 6 -10 -15
-17 -47 -14 -62 -25 -60 -36 7 -10 58 -22 55 -41 -9 -19 -63 -15 -65 -42 27
-5 19 -10 28 -11 19z"/>
<path d="M8462 1315 c0 -38 2 -64 5 -57 2 6 9 9 15 6 6 -4 5 2 -1 15 -9 16 -9
26 0 42 7 13 7 19 1 15 -6 -4 -12 6 -15 21 -2 16 -4 -3 -5 -42z"/>
<path d="M8940 1353 c0 -21 -3 -24 -12 -15 -36 36 -87 -23 -59 -67 5 -8 28
-16 50 -17 l41 -2 0 64 c0 36 -4 64 -10 64 -5 0 -10 -12 -10 -27z m-12 -25
c19 -19 14 -56 -8 -63 -24 -8 -50 10 -50 34 0 19 19 41 35 41 6 0 16 -5 23
-12z"/>
<path d="M9042 1314 c1 -62 2 -64 6 -19 l4 50 23 -50 23 -50 23 50 23 50 6
-50 7 -50 1 68 c1 39 -2 67 -8 67 -5 0 -10 -4 -10 -9 0 -5 -10 -30 -21 -56
l-21 -48 -22 51 c-31 74 -36 73 -34 -4z"/>
<path d="M9312 1315 c0 -38 2 -64 5 -57 4 10 8 10 19 1 25 -21 64 4 64 41 0
37 -39 62 -64 41 -12 -10 -15 -7 -19 16 -2 15 -4 -3 -5 -42z m66 13 c17 -17
15 -43 -4 -59 -31 -26 -70 25 -44 56 15 18 32 19 48 3z"/>
<path d="M9473 1315 c0 -38 2 -53 4 -32 2 20 2 52 0 70 -2 17 -4 1 -4 -38z"/>
<path d="M802 1275 c1 -44 3 -63 5 -42 3 22 8 35 14 31 6 -3 5 3 -3 15 -11 17
-11 25 0 42 8 12 9 18 4 15 -6 -3 -13 0 -15 6 -3 7 -5 -23 -5 -67z"/>
<path d="M858 1334 c12 -8 22 -24 22 -34 0 -10 -10 -26 -22 -34 -25 -18 -17
-21 13 -6 38 21 16 90 -28 90 -4 0 3 -7 15 -16z"/>
<path d="M938 1339 c-26 -14 -23 -65 3 -79 11 -7 23 -9 26 -7 2 3 -5 8 -16 12
-28 9 -27 49 1 69 25 18 13 21 -14 5z"/>
<path d="M1000 1339 c0 -5 -5 -7 -11 -4 -6 4 -5 -2 3 -14 11 -17 11 -25 0 -42
-8 -12 -9 -18 -4 -15 6 3 13 0 15 -6 3 -7 6 11 6 40 1 28 -1 52 -4 52 -3 0 -5
-5 -5 -11z"/>
<path d="M1053 1343 c-23 -9 -14 -32 18 -49 23 -12 28 -19 20 -27 -9 -9 -16
-8 -31 1 -11 7 -20 8 -20 3 0 -16 40 -23 55 -11 22 19 18 30 -15 41 -16 6 -30
15 -30 19 0 17 21 21 37 8 14 -11 15 -11 11 2 -5 16 -25 22 -45 13z"/>
<path d="M1140 1335 c-12 -15 -6 -35 12 -35 7 0 6 5 -2 15 -10 12 -9 16 4 21
9 3 23 1 31 -6 9 -7 15 -8 15 -2 0 9 -22 22 -40 22 -4 0 -13 -7 -20 -15z"/>
<path d="M1233 1300 c0 -30 2 -43 4 -27 2 15 2 39 0 55 -2 15 -4 2 -4 -28z"/>
<path d="M1288 1339 c-26 -15 -23 -65 3 -80 34 -18 69 3 69 40 0 42 -36 62
-72 40z m50 -11 c17 -17 15 -43 -4 -59 -31 -26 -70 25 -44 56 15 18 32 19 48
3z"/>
<path d="M1391 1300 l2 -55 7 45 c4 25 4 49 -1 55 -5 5 -8 -13 -8 -45z"/>
<path d="M1438 1340 c17 -8 22 -18 24 -52 l1 -43 4 38 c5 41 -10 67 -36 66
-11 0 -9 -3 7 -9z"/>
<path d="M1518 1339 c-28 -16 -23 -67 7 -81 18 -8 28 -8 39 1 11 9 15 9 19 -1
3 -7 6 12 6 42 0 34 -3 50 -8 41 -6 -9 -11 -10 -15 -2 -9 14 -25 14 -48 0z
m50 -11 c17 -17 15 -43 -4 -59 -31 -26 -70 25 -44 56 15 18 32 19 48 3z"/>
<path d="M1708 1339 c-28 -16 -23 -67 7 -81 22 -10 29 -9 43 6 16 17 16 18 -5
5 -18 -10 -24 -10 -37 0 -26 22 -19 31 24 31 44 0 49 8 22 33 -21 19 -30 20
-54 6z m50 -16 c2 -9 -7 -13 -27 -13 -31 0 -42 14 -18 23 19 8 40 3 45 -10z"/>
<path d="M1942 1315 c-2 -43 11 -65 37 -65 11 0 9 4 -6 15 -14 10 -23 29 -26
53 l-4 37 -1 -40z"/>
<path d="M2008 1304 c-2 -25 0 -48 4 -50 5 -3 8 18 8 45 0 64 -7 66 -12 5z"/>
<path d="M2378 1339 c-28 -16 -23 -67 7 -81 18 -8 28 -8 39 1 11 9 15 9 19 -1
3 -7 6 12 6 42 0 34 -3 50 -8 41 -6 -9 -11 -10 -15 -2 -9 14 -25 14 -48 0z
m50 -11 c17 -17 15 -43 -4 -59 -31 -26 -70 25 -44 56 15 18 32 19 48 3z"/>
<path d="M2496 1334 c-9 -8 -16 -24 -16 -34 0 -21 25 -50 44 -50 13 0 56 29
43 30 -4 0 -16 -5 -26 -12 -15 -9 -23 -9 -35 1 -35 29 -3 87 35 63 27 -17 38
-14 15 3 -25 19 -41 19 -60 -1z"/>
<path d="M2928 1339 c-28 -16 -23 -67 7 -81 22 -10 29 -9 43 6 16 17 16 18 -5
5 -18 -10 -24 -10 -37 0 -26 22 -19 31 24 31 44 0 49 8 22 33 -21 19 -30 20
-54 6z m50 -16 c2 -9 -7 -13 -27 -13 -31 0 -42 14 -18 23 19 8 40 3 45 -10z"/>
<path d="M3324 1325 c-15 -23 -15 -27 0 -50 9 -14 22 -25 29 -25 16 0 56 29
42 30 -6 0 -16 -5 -22 -11 -15 -15 -43 -4 -43 16 0 11 10 15 35 15 39 0 48 22
16 40 -29 15 -39 13 -57 -15z m50 9 c26 -10 18 -24 -14 -24 -29 0 -38 9 -23
23 8 9 17 9 37 1z"/>
<path d="M3437 1308 c24 -64 30 -66 53 -13 11 26 18 50 16 53 -3 3 -10 -8 -16
-24 -6 -16 -13 -36 -16 -44 -4 -10 -12 -1 -25 28 -10 23 -21 42 -24 42 -2 0 3
-19 12 -42z"/>
<path d="M3548 1339 c-28 -16 -23 -67 7 -81 22 -10 29 -9 43 6 16 17 16 18 -5
5 -18 -10 -24 -10 -37 0 -26 22 -19 31 24 31 44 0 49 8 22 33 -21 19 -30 20
-54 6z m50 -16 c2 -9 -7 -13 -27 -13 -31 0 -42 14 -18 23 19 8 40 3 45 -10z"/>
<path d="M3700 1330 c-25 -25 -25 -32 -1 -61 16 -20 22 -22 44 -12 37 17 45
52 17 75 -28 23 -35 23 -60 -2z m54 -6 c9 -8 16 -19 16 -24 0 -11 -29 -40 -40
-40 -11 0 -40 29 -40 40 0 11 29 40 40 40 5 0 16 -7 24 -16z"/>
<path d="M3800 1274 c0 -43 4 -74 10 -74 6 0 10 14 10 30 0 27 3 30 24 24 26
-6 56 17 56 44 0 31 -18 46 -59 48 l-41 2 0 -74z m80 46 c11 -21 -2 -60 -20
-60 -25 0 -40 15 -40 40 0 41 41 55 60 20z"/>
<path d="M3938 1339 c-25 -14 -23 -65 2 -79 22 -12 60 -5 60 11 0 5 -9 4 -19
-3 -15 -9 -23 -9 -35 1 -26 22 -19 31 24 31 43 0 49 9 24 34 -18 18 -32 20
-56 5z m52 -14 c11 -13 7 -15 -25 -15 -32 0 -36 2 -25 15 7 8 18 15 25 15 7 0
18 -7 25 -15z"/>
<path d="M4042 1295 c1 -46 2 -47 5 -11 3 22 11 45 19 51 13 9 12 11 -5 11
-19 0 -21 -6 -19 -51z"/>
<path d="M4282 1295 c1 -44 2 -45 5 -12 2 21 11 41 19 44 21 8 17 19 -6 19
-18 0 -20 -6 -18 -51z"/>
<path d="M4356 1334 c-9 -8 -16 -24 -16 -34 0 -21 25 -50 44 -50 13 0 56 29
43 30 -4 0 -16 -5 -26 -12 -15 -9 -23 -9 -35 1 -26 22 -19 31 24 31 44 0 55
21 21 40 -27 14 -37 13 -55 -6z m54 -9 c11 -13 7 -15 -25 -15 -32 0 -36 2 -25
15 7 8 18 15 25 15 7 0 18 -7 25 -15z"/>
<path d="M4464 1325 c-15 -23 -15 -27 0 -50 9 -14 22 -25 29 -25 16 0 56 29
42 30 -6 0 -16 -5 -22 -11 -15 -15 -43 -4 -43 16 0 11 10 15 35 15 39 0 48 22
16 40 -29 15 -39 13 -57 -15z m50 9 c26 -10 18 -24 -14 -24 -29 0 -38 9 -23
23 8 9 17 9 37 1z"/>
<path d="M4628 1339 c-28 -16 -23 -67 7 -81 18 -8 28 -8 39 1 11 9 15 9 19 -1
3 -7 6 12 6 42 0 34 -3 50 -8 41 -6 -9 -11 -10 -15 -2 -9 14 -25 14 -48 0z
m50 -11 c17 -17 15 -43 -4 -59 -31 -26 -70 25 -44 56 15 18 32 19 48 3z"/>
<path d="M4740 1300 c0 -29 2 -51 4 -49 8 8 10 88 3 95 -4 4 -7 -17 -7 -46z"/>
<path d="M4787 1335 c14 -10 23 -29 26 -53 l4 -37 1 41 c2 42 -11 64 -37 64
-11 0 -9 -4 6 -15z"/>
<path d="M4868 1339 c-28 -16 -23 -67 7 -81 22 -10 28 -9 43 7 16 18 16 18 0
6 -27 -20 -58 -5 -58 29 0 34 31 49 58 28 15 -12 16 -11 3 5 -15 19 -28 21
-53 6z"/>
<path d="M4978 1339 c-28 -16 -23 -67 7 -81 22 -10 29 -9 43 6 16 17 16 18 -5
5 -18 -10 -24 -10 -37 0 -26 22 -19 31 24 31 44 0 49 8 22 33 -21 19 -30 20
-54 6z m50 -16 c2 -9 -7 -13 -27 -13 -31 0 -42 14 -18 23 19 8 40 3 45 -10z"/>
<path d="M5072 1295 c1 -44 2 -45 5 -12 2 21 11 41 19 44 21 8 17 19 -6 19
-18 0 -20 -6 -18 -51z"/>
<path d="M5237 1335 c14 -10 23 -29 26 -53 l4 -37 1 41 c2 42 -11 64 -37 64
-11 0 -9 -4 6 -15z"/>
<path d="M5318 1339 c-26 -14 -23 -65 3 -79 11 -7 23 -9 26 -7 2 3 -5 8 -16
12 -28 9 -27 49 1 69 25 18 13 21 -14 5z"/>
<path d="M5380 1339 c0 -5 -5 -7 -11 -4 -6 4 -5 -2 3 -14 11 -17 11 -25 0 -42
-8 -12 -9 -18 -4 -15 6 3 13 0 15 -6 3 -7 6 11 6 40 1 28 -1 52 -4 52 -3 0 -5
-5 -5 -11z"/>
<path d="M5432 1300 c11 -27 24 -50 27 -50 8 0 43 91 37 97 -2 2 -11 -15 -21
-39 l-18 -43 -13 30 c-7 17 -13 36 -14 43 0 6 -4 12 -9 12 -6 0 -1 -22 11 -50z"/>
<path d="M5520 1300 c0 -27 5 -50 10 -50 6 0 10 23 10 50 0 28 -4 50 -10 50
-5 0 -10 -22 -10 -50z"/>
<path d="M5571 1300 l2 -55 7 45 c4 25 4 49 -1 55 -5 5 -8 -13 -8 -45z"/>
<path d="M5618 1340 c17 -8 22 -18 24 -52 l1 -43 4 38 c5 41 -10 67 -36 66
-11 0 -9 -3 7 -9z"/>
<path d="M5698 1339 c-28 -16 -23 -67 7 -81 19 -8 28 -8 40 2 13 10 15 9 15
-8 0 -30 -27 -49 -51 -34 -10 7 -19 8 -19 3 0 -16 38 -23 60 -11 17 9 20 20
20 78 0 41 -4 62 -9 53 -6 -9 -11 -10 -15 -2 -9 14 -25 14 -48 0z m50 -11 c17
-17 15 -43 -4 -59 -31 -26 -70 25 -44 56 15 18 32 19 48 3z"/>
<path d="M5868 1339 c-28 -16 -23 -67 7 -81 18 -8 28 -8 39 1 11 9 15 9 19 -1
3 -7 6 12 6 42 0 34 -3 50 -8 41 -6 -9 -11 -10 -15 -2 -9 14 -25 14 -48 0z
m50 -11 c17 -17 15 -43 -4 -59 -31 -26 -70 25 -44 56 15 18 32 19 48 3z"/>
<path d="M5970 1301 c0 -28 5 -51 10 -51 6 0 10 18 10 40 0 22 0 43 1 47 0 4
-4 9 -10 11 -7 2 -11 -15 -11 -47z"/>
<path d="M6027 1335 c14 -10 23 -29 26 -53 l4 -37 1 37 c2 36 -17 68 -41 68
-6 0 -2 -7 10 -15z"/>
<path d="M6144 1325 c-15 -23 -15 -27 0 -50 9 -14 22 -25 29 -25 16 0 56 29
42 30 -6 0 -16 -5 -22 -11 -15 -15 -43 -4 -43 16 0 11 10 15 35 15 39 0 48 22
16 40 -29 15 -39 13 -57 -15z m50 9 c26 -10 18 -24 -14 -24 -29 0 -38 9 -23
23 8 9 17 9 37 1z"/>
<path d="M6254 1328 c15 -26 15 -30 0 -55 -15 -27 -15 -27 1 -6 l17 23 20 -23
19 -22 -14 30 c-13 25 -13 32 0 55 14 25 14 25 -2 3 l-17 -23 -20 23 -20 22
16 -27z"/>
<path d="M6342 1275 c1 -44 3 -63 5 -42 4 32 7 36 19 26 25 -21 64 4 64 41 0
37 -39 62 -64 41 -11 -9 -15 -9 -19 1 -3 7 -5 -23 -5 -67z m66 53 c17 -17 15
-43 -4 -59 -31 -26 -70 25 -44 56 15 18 32 19 48 3z"/>
<path d="M6466 1334 c-9 -8 -16 -24 -16 -34 0 -21 25 -50 44 -50 13 0 56 29
43 30 -4 0 -16 -5 -26 -12 -15 -9 -23 -9 -35 1 -26 22 -19 31 24 31 44 0 55
21 21 40 -27 14 -37 13 -55 -6z m54 -9 c11 -13 7 -15 -25 -15 -32 0 -36 2 -25
15 7 8 18 15 25 15 7 0 18 -7 25 -15z"/>
<path d="M6572 1295 c1 -44 2 -45 5 -12 2 21 11 41 19 44 21 8 17 19 -6 19
-18 0 -20 -6 -18 -51z"/>
<path d="M6643 1300 c0 -30 2 -43 4 -27 2 15 2 39 0 55 -2 15 -4 2 -4 -28z"/>
<path d="M6684 1325 c-15 -23 -15 -27 0 -50 9 -14 22 -25 29 -25 16 0 56 29
42 30 -6 0 -16 -5 -22 -11 -15 -15 -43 -4 -43 16 0 11 10 15 35 15 39 0 48 22
16 40 -29 15 -39 13 -57 -15z m50 9 c26 -10 18 -24 -14 -24 -29 0 -38 9 -23
23 8 9 17 9 37 1z"/>
<path d="M6792 1295 c1 -42 2 -44 5 -13 8 73 59 78 66 6 l4 -43 1 48 c2 49 2
49 -50 51 -27 2 -28 0 -26 -49z"/>
<path d="M6916 1334 c-9 -8 -16 -24 -16 -34 0 -21 25 -50 44 -50 13 0 56 29
43 30 -4 0 -16 -5 -26 -12 -15 -9 -23 -9 -35 1 -35 29 -3 87 35 63 27 -17 38
-14 15 3 -25 19 -41 19 -60 -1z"/>
<path d="M7026 1334 c-9 -8 -16 -24 -16 -34 0 -21 25 -50 44 -50 13 0 56 29
43 30 -4 0 -16 -5 -26 -12 -15 -9 -23 -9 -35 1 -26 22 -19 31 24 31 44 0 55
21 21 40 -27 14 -37 13 -55 -6z m54 -9 c11 -13 7 -15 -25 -15 -32 0 -36 2 -25
15 7 8 18 15 25 15 7 0 18 -7 25 -15z"/>
<path d="M7186 1334 c-9 -8 -16 -24 -16 -34 0 -20 25 -50 41 -50 27 0 49 22
49 50 0 44 -44 64 -74 34z m52 -6 c17 -17 15 -43 -4 -59 -31 -26 -70 25 -44
56 15 18 32 19 48 3z"/>
<path d="M7458 1334 c12 -8 22 -24 22 -34 0 -10 -10 -26 -22 -34 -25 -18 -17
-21 13 -6 38 21 16 90 -28 90 -4 0 3 -7 15 -16z"/>
<path d="M7522 1315 c-2 -43 11 -65 38 -64 10 0 9 3 -5 8 -14 6 -22 21 -26 52
l-6 44 -1 -40z"/>
<path d="M7588 1308 c-3 -24 -1 -47 3 -52 5 -6 9 13 9 42 0 63 -6 68 -12 10z"/>
<path d="M7630 1300 c0 -27 5 -50 10 -50 6 0 10 23 10 50 0 28 -4 50 -10 50
-5 0 -10 -22 -10 -50z"/>
<path d="M7840 1300 c0 -27 5 -50 10 -50 6 0 10 23 10 50 0 28 -4 50 -10 50
-5 0 -10 -22 -10 -50z"/>
<path d="M7891 1300 l2 -55 7 45 c4 25 4 49 -1 55 -5 5 -8 -13 -8 -45z"/>
<path d="M7938 1340 c17 -8 22 -18 24 -52 l1 -43 4 38 c5 41 -10 67 -36 66
-11 0 -9 -3 7 -9z"/>
<path d="M8018 1339 c-28 -16 -23 -67 7 -81 19 -8 28 -8 40 2 13 10 15 9 15
-8 0 -30 -27 -49 -51 -34 -10 7 -19 8 -19 3 0 -16 38 -23 60 -11 17 9 20 20
20 78 0 41 -4 62 -9 53 -6 -9 -11 -10 -15 -2 -9 14 -25 14 -48 0z m50 -11 c17
-17 15 -43 -4 -59 -31 -26 -70 25 -44 56 15 18 32 19 48 3z"/>
<path d="M8354 1325 c-15 -23 -15 -27 0 -50 9 -14 22 -25 29 -25 16 0 56 29
42 30 -6 0 -16 -5 -22 -11 -15 -15 -43 -4 -43 16 0 11 10 15 35 15 39 0 48 22
16 40 -29 15 -39 13 -57 -15z m50 9 c26 -10 18 -24 -14 -24 -29 0 -38 9 -23
23 8 9 17 9 37 1z"/>
<path d="M8518 1338 c15 -7 22 -20 22 -38 0 -18 -7 -31 -22 -38 -18 -8 -19
-11 -6 -11 10 -1 25 10 34 24 15 23 15 27 0 50 -9 14 -24 25 -34 24 -13 0 -12
-3 6 -11z"/>
<path d="M8648 1339 c-26 -14 -23 -65 3 -79 11 -7 23 -9 26 -7 2 3 -5 8 -16
12 -28 9 -27 49 1 69 25 18 13 21 -14 5z"/>
<path d="M8710 1339 c0 -5 -5 -7 -11 -4 -6 4 -5 -2 3 -14 11 -17 11 -25 0 -42
-8 -12 -9 -18 -4 -15 6 3 13 0 15 -6 3 -7 6 11 6 40 1 28 -1 52 -4 52 -3 0 -5
-5 -5 -11z"/>
<path d="M8752 1295 c1 -42 2 -44 5 -13 8 73 59 78 66 6 l4 -43 1 48 c2 49 2
49 -50 51 -27 2 -28 0 -26 -49z"/>
<path d="M9208 1339 c-25 -14 -24 -65 1 -79 11 -5 24 -10 30 -10 16 0 41 30
41 50 0 21 -25 50 -43 50 -7 0 -20 -5 -29 -11z m50 -11 c28 -28 1 -75 -38 -63
-33 11 -21 75 15 75 6 0 16 -5 23 -12z"/>
<path d="M9433 1300 c0 -30 2 -43 4 -27 2 15 2 39 0 55 -2 15 -4 2 -4 -28z"/>
<path d="M9526 1334 c-9 -8 -16 -24 -16 -34 0 -21 25 -50 44 -50 13 0 56 29
43 30 -4 0 -16 -5 -26 -12 -15 -9 -23 -9 -35 1 -26 22 -19 31 24 31 44 0 55
21 21 40 -27 14 -37 13 -55 -6z m54 -9 c11 -13 7 -15 -25 -15 -32 0 -36 2 -25
15 7 8 18 15 25 15 7 0 18 -7 25 -15z"/>
<path d="M1180 1291 c12 -8 12 -13 2 -23 -10 -10 -17 -10 -35 1 -21 12 -21 12
-6 -4 11 -11 24 -15 38 -10 25 7 25 36 1 42 -13 4 -13 3 0 -6z"/>
<path d="M1903 1045 c0 -38 2 -53 4 -32 2 20 2 52 0 70 -2 17 -4 1 -4 -38z"/>
<path d="M1940 1100 c0 -5 5 -10 10 -10 6 0 10 5 10 10 0 6 -4 10 -10 10 -5 0
-10 -4 -10 -10z"/>
<path d="M2219 1095 c-2 -11 -2 -40 1 -65 4 -35 9 -45 25 -48 18 -2 18 -2 3 8
-12 7 -18 23 -18 45 0 24 5 35 18 38 15 4 15 5 0 6 -9 0 -18 9 -20 19 -3 15
-4 14 -9 -3z"/>
<path d="M2280 1100 c0 -5 5 -10 10 -10 6 0 10 5 10 10 0 6 -4 10 -10 10 -5 0
-10 -4 -10 -10z"/>
<path d="M2901 1098 c-1 -10 -7 -18 -13 -18 -10 0 -10 -2 -1 -8 6 -4 13 -25
15 -46 2 -22 9 -41 16 -42 7 -1 8 0 2 3 -15 7 -13 83 3 83 8 0 9 3 1 8 -6 4
-14 14 -17 22 -4 12 -6 11 -6 -2z"/>
<path d="M2963 1045 c0 -38 2 -53 4 -33 8 72 62 76 65 4 l1 -41 4 38 c5 46
-12 71 -43 63 -18 -5 -24 -1 -27 16 -2 13 -4 -8 -4 -47z"/>
<path d="M3172 1058 c-2 -60 -13 -78 -37 -58 -11 9 -15 9 -15 1 0 -19 30 -25
46 -9 11 11 14 31 11 69 l-3 54 -2 -57z"/>
<path d="M3570 1095 c-16 -20 -6 -43 24 -55 32 -12 39 -25 20 -41 -13 -10 -20
-10 -37 0 -21 13 -21 12 -5 -5 15 -15 21 -16 43 -6 35 16 29 43 -13 61 -17 8
-32 21 -32 28 0 20 28 27 45 13 9 -7 15 -8 15 -2 0 9 -22 22 -40 22 -4 0 -13
-7 -20 -15z"/>
<path d="M4009 1095 c-2 -11 -2 -40 1 -65 4 -35 9 -45 25 -48 18 -2 18 -2 3 8
-12 7 -18 23 -18 45 0 24 5 35 18 38 15 4 15 5 0 6 -9 0 -18 9 -20 19 -3 15
-4 14 -9 -3z"/>
<path d="M4130 1095 c-10 -10 -14 -30 -12 -65 5 -62 22 -66 22 -5 0 29 4 45
13 45 8 0 7 4 -3 10 -13 9 -13 11 0 20 8 5 10 10 5 10 -6 0 -17 -7 -25 -15z"/>
<path d="M5003 1045 c0 -38 2 -59 4 -47 l5 24 25 -24 26 -23 -18 28 c-16 26
-16 28 0 55 l18 27 -26 -24 -26 -23 -4 38 c-2 22 -4 8 -4 -31z"/>
<path d="M5540 1083 c0 -21 -3 -24 -12 -15 -36 36 -87 -23 -59 -67 5 -8 28
-16 50 -17 l41 -2 0 64 c0 36 -4 64 -10 64 -5 0 -10 -12 -10 -27z m-12 -25
c19 -19 14 -56 -8 -63 -24 -8 -50 10 -50 34 0 19 19 41 35 41 6 0 16 -5 23
-12z"/>
<path d="M5761 1098 c-1 -10 -6 -18 -12 -18 -8 0 -8 -4 -1 -13 6 -6 12 -27 14
-46 2 -19 9 -36 16 -37 7 -1 8 0 2 3 -15 7 -13 83 3 83 8 0 9 3 1 8 -6 4 -14
14 -17 22 -4 12 -6 11 -6 -2z"/>
<path d="M5820 1045 c0 -38 2 -66 5 -63 7 7 9 118 1 125 -3 3 -6 -24 -6 -62z"/>
<path d="M6503 1045 c0 -38 2 -53 4 -32 2 20 2 52 0 70 -2 17 -4 1 -4 -38z"/>
<path d="M6593 1045 c0 -38 2 -53 4 -32 2 20 2 52 0 70 -2 17 -4 1 -4 -38z"/>
<path d="M6682 1045 c0 -38 2 -64 5 -57 2 6 9 9 15 6 5 -3 4 3 -4 15 -11 17
-11 25 0 42 8 12 9 18 3 15 -5 -4 -12 6 -14 21 -2 16 -4 -3 -5 -42z"/>
<path d="M7670 1084 c0 -15 -4 -23 -11 -19 -6 4 -5 -2 3 -14 11 -17 11 -25 0
-42 -8 -12 -9 -18 -4 -15 6 3 13 0 15 -6 3 -7 6 17 6 55 1 37 -1 67 -4 67 -3
0 -5 -12 -5 -26z"/>
<path d="M7763 1045 c0 -38 2 -53 4 -32 2 20 2 52 0 70 -2 17 -4 1 -4 -38z"/>
<path d="M1546 1064 c-36 -35 -13 -77 43 -80 l41 -2 0 49 c0 27 -4 49 -10 49
-5 0 -10 -5 -10 -12 0 -9 -3 -9 -12 0 -16 16 -33 15 -52 -4z m52 -6 c19 -19
14 -56 -8 -63 -24 -8 -50 10 -50 34 0 19 19 41 35 41 6 0 16 -5 23 -12z"/>
<path d="M1662 1005 c1 -44 3 -63 5 -42 4 32 7 36 19 26 25 -21 64 4 64 41 0
37 -39 62 -64 41 -11 -9 -15 -9 -19 1 -3 7 -5 -23 -5 -67z m66 53 c17 -17 15
-43 -4 -59 -31 -26 -70 25 -44 56 15 18 32 19 48 3z"/>
<path d="M1782 1005 c1 -44 3 -63 5 -42 3 22 8 35 14 31 6 -3 5 3 -3 15 -11
17 -11 25 0 42 8 12 9 18 4 15 -6 -3 -13 0 -15 6 -3 7 -5 -23 -5 -67z"/>
<path d="M1838 1064 c28 -19 28 -49 0 -68 -25 -18 -17 -21 13 -6 38 21 16 90
-28 90 -4 0 3 -7 15 -16z"/>
<path d="M1940 1030 c0 -27 5 -50 10 -50 6 0 10 23 10 50 0 28 -4 50 -10 50
-5 0 -10 -22 -10 -50z"/>
<path d="M1994 1055 c-15 -23 -15 -27 0 -50 9 -14 22 -25 29 -25 16 0 56 29
42 30 -6 0 -16 -5 -22 -11 -19 -19 -43 -2 -43 31 0 33 24 50 43 31 6 -6 16
-11 22 -11 14 1 -26 30 -42 30 -7 0 -20 -11 -29 -25z"/>
<path d="M2106 1064 c-36 -35 -13 -77 43 -80 l41 -2 0 49 c0 27 -4 49 -10 49
-5 0 -10 -5 -10 -12 0 -9 -3 -9 -12 0 -16 16 -33 15 -52 -4z m52 -6 c19 -19
14 -56 -8 -63 -24 -8 -50 10 -50 34 0 19 19 41 35 41 6 0 16 -5 23 -12z"/>
<path d="M2280 1030 c0 -27 5 -50 10 -50 6 0 10 23 10 50 0 28 -4 50 -10 50
-5 0 -10 -22 -10 -50z"/>
<path d="M2340 1060 c-25 -25 -25 -32 -1 -61 16 -20 22 -22 44 -12 37 17 45
52 17 75 -28 23 -35 23 -60 -2z m54 -6 c9 -8 16 -19 16 -24 0 -5 -7 -16 -16
-24 -8 -9 -19 -16 -24 -16 -5 0 -16 7 -24 16 -9 8 -16 19 -16 24 0 5 7 16 16
24 8 9 19 16 24 16 5 0 16 -7 24 -16z"/>
<path d="M2440 1031 c0 -28 5 -51 10 -51 6 0 10 18 10 40 0 22 0 43 1 47 0 4
-4 9 -10 11 -7 2 -11 -15 -11 -47z"/>
<path d="M2497 1065 c14 -10 23 -29 26 -53 l4 -37 1 37 c2 36 -17 68 -41 68
-6 0 -2 -7 10 -15z"/>
<path d="M2567 1073 c-16 -15 -6 -41 18 -47 14 -4 25 -11 25 -16 0 -16 -21
-22 -36 -9 -8 6 -17 9 -20 6 -9 -9 36 -29 52 -23 22 9 16 35 -11 48 -14 6 -25
15 -25 19 0 15 21 21 35 9 9 -7 15 -8 15 -2 0 16 -40 28 -53 15z"/>
<path d="M2690 1078 c0 -2 7 -25 16 -51 17 -51 29 -53 39 -7 9 40 21 38 29 -5
4 -19 11 -35 16 -35 12 0 13 17 1 24 -5 3 -12 22 -15 41 -9 46 -20 44 -36 -7
l-13 -43 -11 37 c-10 31 -26 61 -26 46z"/>
<path d="M2809 1053 c-5 -14 -8 -30 -6 -36 1 -5 8 7 14 27 13 42 7 49 -8 9z"/>
<path d="M2853 1030 c0 -30 2 -43 4 -27 2 15 2 39 0 55 -2 15 -4 2 -4 -28z"/>
<path d="M3226 1064 c-36 -35 -13 -77 43 -80 l41 -2 0 49 c0 27 -4 49 -10 49
-5 0 -10 -5 -10 -12 0 -9 -3 -9 -12 0 -16 16 -33 15 -52 -4z m52 -6 c19 -19
14 -56 -8 -63 -24 -8 -50 10 -50 34 0 19 19 41 35 41 6 0 16 -5 23 -12z"/>
<path d="M3332 1069 c3 -8 11 -31 19 -52 7 -20 17 -36 22 -34 12 4 48 97 38
97 -4 0 -13 -18 -20 -40 -13 -45 -26 -45 -36 0 -4 16 -11 33 -17 37 -7 4 -9 1
-6 -8z"/>
<path d="M3444 1055 c-15 -23 -15 -27 0 -50 9 -14 24 -25 34 -24 13 0 13 2 -4
9 -36 14 -41 61 -8 74 35 13 62 -21 43 -56 -7 -12 -7 -18 -1 -14 6 3 13 0 15
-6 3 -7 6 12 6 42 0 30 -3 50 -7 43 -5 -8 -13 -9 -22 -3 -24 16 -39 12 -56
-15z"/>
<path d="M3676 1064 c-9 -8 -16 -24 -16 -34 0 -21 25 -50 44 -50 13 0 56 29
43 30 -4 0 -16 -5 -26 -12 -15 -9 -23 -9 -35 1 -35 29 -3 87 35 63 27 -17 38
-14 15 3 -25 19 -41 19 -60 -1z"/>
<path d="M3782 1025 c1 -46 2 -47 5 -11 3 22 11 45 19 51 13 9 12 11 -5 11
-19 0 -21 -6 -19 -51z"/>
<path d="M3843 1030 c0 -30 2 -43 4 -27 2 15 2 39 0 55 -2 15 -4 2 -4 -28z"/>
<path d="M3892 1005 c1 -44 3 -63 5 -42 4 32 7 36 19 26 25 -21 64 4 64 41 0
37 -39 62 -64 41 -11 -9 -15 -9 -19 1 -3 7 -5 -23 -5 -67z m66 53 c17 -17 15
-43 -4 -59 -31 -26 -70 25 -44 56 15 18 32 19 48 3z"/>
<path d="M4182 1025 c1 -44 2 -45 5 -12 2 21 11 41 19 44 21 8 17 19 -6 19
-18 0 -20 -6 -18 -51z"/>
<path d="M4254 1055 c-15 -23 -15 -27 0 -50 9 -14 24 -25 34 -24 13 0 13 2 -4
9 -36 14 -41 61 -8 74 35 13 62 -21 43 -56 -7 -12 -7 -18 -1 -14 6 3 13 0 15
-6 3 -7 6 12 6 42 0 30 -3 50 -7 43 -5 -8 -13 -9 -22 -3 -24 16 -39 12 -56
-15z"/>
<path d="M4371 1030 l2 -55 7 45 c4 25 4 49 -1 55 -5 5 -8 -13 -8 -45z"/>
<path d="M4418 1070 c17 -8 22 -18 24 -52 1 -43 1 -43 5 -6 8 73 59 78 66 6
l4 -43 1 41 c2 52 -19 75 -50 55 -15 -9 -23 -10 -31 -2 -6 6 -18 11 -26 10
-10 0 -7 -4 7 -9z"/>
<path d="M4568 1069 c-25 -14 -23 -65 2 -79 22 -12 60 -5 60 11 0 5 -9 4 -19
-3 -15 -9 -23 -9 -35 1 -26 22 -19 31 24 31 43 0 49 9 24 34 -18 18 -32 20
-56 5z m52 -14 c11 -13 7 -15 -25 -15 -32 0 -36 2 -25 15 7 8 18 15 25 15 7 0
18 -7 25 -15z"/>
<path d="M4661 1077 c-2 -19 22 -97 30 -97 11 0 12 14 2 24 -5 4 -13 24 -19
44 -7 20 -12 33 -13 29z"/>
<path d="M4717 1074 c-4 -4 -7 -14 -7 -23 0 -12 2 -13 8 -3 6 9 13 -1 21 -29
13 -45 26 -42 36 6 l6 30 -15 -30 c-8 -16 -15 -23 -16 -15 -2 27 -25 72 -33
64z"/>
<path d="M4828 1069 c-26 -15 -23 -65 3 -80 34 -18 69 3 69 40 0 42 -36 62
-72 40z m50 -11 c17 -17 15 -43 -4 -59 -31 -26 -70 25 -44 56 15 18 32 19 48
3z"/>
<path d="M4932 1025 c1 -44 2 -45 5 -12 2 21 11 41 19 44 21 8 17 19 -6 19
-18 0 -20 -6 -18 -51z"/>
<path d="M5097 1073 c-16 -15 -6 -41 18 -47 14 -4 25 -11 25 -16 0 -16 -21
-22 -36 -9 -8 6 -17 9 -20 6 -9 -9 36 -29 52 -23 22 9 16 35 -11 48 -14 6 -25
15 -25 19 0 15 21 21 35 9 9 -7 15 -8 15 -2 0 16 -40 28 -53 15z"/>
<path d="M5248 1069 c-26 -14 -23 -65 3 -79 11 -7 23 -9 26 -7 2 3 -5 8 -16
12 -28 9 -27 49 1 69 25 18 13 21 -14 5z"/>
<path d="M5310 1069 c0 -5 -5 -7 -11 -4 -6 4 -5 -2 3 -14 11 -17 11 -25 0 -42
-8 -12 -9 -18 -4 -15 6 3 13 0 15 -6 3 -7 6 11 6 40 1 28 -1 52 -4 52 -3 0 -5
-5 -5 -11z"/>
<path d="M5352 1025 c1 -42 2 -44 5 -13 8 73 59 78 66 6 l4 -43 1 48 c2 49 2
49 -50 51 -27 2 -28 0 -26 -49z"/>
<path d="M5646 1064 c-9 -8 -16 -24 -16 -34 0 -20 25 -50 41 -50 27 0 49 22
49 50 0 44 -44 64 -74 34z m52 -6 c17 -17 15 -43 -4 -59 -31 -26 -70 25 -44
56 15 18 32 19 48 3z"/>
<path d="M5867 1065 c14 -10 23 -29 26 -53 l4 -37 1 41 c2 42 -11 64 -37 64
-11 0 -9 -4 6 -15z"/>
<path d="M5948 1069 c-25 -14 -23 -65 2 -79 22 -12 60 -5 60 11 0 5 -9 4 -19
-3 -15 -9 -23 -9 -35 1 -26 22 -19 31 24 31 43 0 49 9 24 34 -18 18 -32 20
-56 5z m52 -14 c11 -13 7 -15 -25 -15 -32 0 -36 2 -25 15 7 8 18 15 25 15 7 0
18 -7 25 -15z"/>
<path d="M6040 1029 c0 -27 5 -49 10 -49 6 0 10 16 10 36 0 21 6 41 15 48 13
9 11 11 -10 12 -23 2 -25 -1 -25 -47z"/>
<path d="M6164 1055 c-15 -23 -15 -27 0 -50 9 -14 22 -25 29 -25 16 0 56 29
42 30 -6 0 -16 -5 -22 -11 -19 -19 -43 -2 -43 31 0 33 24 50 43 31 6 -6 16
-11 22 -11 14 1 -26 30 -42 30 -7 0 -20 -11 -29 -25z"/>
<path d="M6280 1060 c-25 -25 -25 -32 -1 -61 16 -20 22 -22 44 -12 37 17 45
52 17 75 -28 23 -35 23 -60 -2z m54 -6 c9 -8 16 -19 16 -24 0 -11 -29 -40 -40
-40 -11 0 -40 29 -40 40 0 11 29 40 40 40 5 0 16 -7 24 -16z"/>
<path d="M6398 1069 c-26 -15 -23 -65 3 -80 34 -18 69 3 69 40 0 42 -36 62
-72 40z m50 -11 c17 -17 15 -43 -4 -59 -31 -26 -70 25 -44 56 15 18 32 19 48
3z"/>
<path d="M6643 1030 c0 -30 2 -43 4 -27 2 15 2 39 0 55 -2 15 -4 2 -4 -28z"/>
<path d="M6738 1064 c12 -8 22 -24 22 -34 0 -10 -10 -26 -22 -34 -25 -18 -17
-21 13 -6 38 21 16 90 -28 90 -4 0 3 -7 15 -16z"/>
<path d="M6802 1025 c1 -44 2 -45 5 -12 2 21 11 41 19 44 21 8 17 19 -6 19
-18 0 -20 -6 -18 -51z"/>
<path d="M6874 1055 c-15 -23 -15 -27 0 -50 9 -14 24 -25 34 -24 13 0 13 2 -4
9 -36 14 -41 61 -8 74 35 13 62 -21 43 -56 -7 -12 -7 -18 -1 -14 6 3 13 0 15
-6 3 -7 6 12 6 42 0 30 -3 50 -7 43 -5 -8 -13 -9 -22 -3 -24 16 -39 12 -56
-15z"/>
<path d="M6992 1025 c1 -44 2 -45 5 -12 2 21 11 41 19 44 21 8 17 19 -6 19
-18 0 -20 -6 -18 -51z"/>
<path d="M7063 1030 c0 -30 2 -43 4 -27 2 15 2 39 0 55 -2 15 -4 2 -4 -28z"/>
<path d="M7118 1069 c-28 -16 -23 -67 7 -81 22 -10 29 -9 43 6 16 17 16 18 -5
5 -18 -10 -24 -10 -37 0 -26 22 -19 31 24 31 44 0 49 8 22 33 -21 19 -30 20
-54 6z m50 -16 c2 -9 -7 -13 -27 -13 -31 0 -42 14 -18 23 19 8 40 3 45 -10z"/>
<path d="M7223 1073 c-23 -9 -14 -32 18 -49 23 -12 28 -19 20 -27 -9 -9 -16
-8 -31 1 -11 7 -20 8 -20 3 0 -16 40 -23 55 -11 22 19 18 30 -15 41 -16 6 -30
15 -30 19 0 17 21 21 37 8 14 -11 15 -11 11 2 -5 16 -25 22 -45 13z"/>
<path d="M7368 1069 c-28 -16 -23 -67 7 -81 18 -8 28 -8 39 1 11 9 15 9 19 -1
3 -7 6 12 6 42 0 34 -3 50 -8 41 -6 -9 -11 -10 -15 -2 -9 14 -25 14 -48 0z
m50 -11 c17 -17 15 -43 -4 -59 -31 -26 -70 25 -44 56 15 18 32 19 48 3z"/>
<path d="M7480 1030 c0 -29 2 -51 4 -49 8 8 10 88 3 95 -4 4 -7 -17 -7 -46z"/>
<path d="M7527 1065 c14 -10 23 -29 26 -53 l4 -37 1 41 c2 42 -11 64 -37 64
-11 0 -9 -4 6 -15z"/>
<path d="M7608 1069 c-26 -14 -23 -65 3 -79 11 -7 23 -9 26 -7 2 3 -5 8 -16
12 -28 9 -27 49 1 69 25 18 13 21 -14 5z"/>
<path d="M7818 1069 c-28 -16 -23 -67 7 -81 18 -8 28 -8 39 1 11 9 15 9 19 -1
3 -7 6 12 6 42 0 34 -3 50 -8 41 -6 -9 -11 -10 -15 -2 -9 14 -25 14 -48 0z
m50 -11 c17 -17 15 -43 -4 -59 -31 -26 -70 25 -44 56 15 18 32 19 48 3z"/>
<path d="M7930 1030 c0 -29 2 -51 4 -49 8 8 10 88 3 95 -4 4 -7 -17 -7 -46z"/>
<path d="M7977 1065 c14 -10 23 -29 26 -53 l4 -37 1 41 c2 42 -11 64 -37 64
-11 0 -9 -4 6 -15z"/>
<path d="M8058 1069 c-25 -14 -24 -65 1 -79 30 -15 38 -12 13 6 -29 20 -29 58
1 72 12 6 18 11 12 11 -5 0 -18 -4 -27 -10z"/>
<path d="M8120 1069 c0 -5 -5 -7 -11 -4 -6 4 -5 -2 3 -14 11 -17 11 -25 0 -42
-8 -12 -9 -18 -3 -14 17 10 13 -31 -5 -46 -13 -10 -19 -10 -36 0 -11 7 -22 10
-25 8 -3 -3 5 -11 17 -17 17 -9 29 -9 46 -1 22 10 24 17 24 76 0 36 -2 65 -5
65 -3 0 -5 -5 -5 -11z"/>
<path d="M8161 1048 c-1 -36 19 -68 42 -68 6 0 3 6 -7 13 -10 8 -22 31 -26 53
l-8 39 -1 -37z"/>
<path d="M8240 1054 c0 -14 -4 -34 -10 -44 -7 -13 -6 -19 5 -24 12 -4 15 5 15
44 0 28 -2 50 -5 50 -3 0 -5 -12 -5 -26z"/>
<path d="M8284 1055 c-15 -23 -15 -27 0 -50 9 -14 24 -25 34 -24 13 0 13 2 -4
9 -36 14 -41 61 -8 74 35 13 62 -21 43 -56 -7 -12 -7 -18 -1 -14 6 3 13 0 15
-6 3 -7 6 12 6 42 0 30 -3 50 -7 43 -5 -8 -13 -9 -22 -3 -24 16 -39 12 -56
-15z"/>
<path d="M8404 1055 c-15 -23 -15 -27 0 -50 18 -28 28 -30 57 -15 24 13 26 -6
5 -36 -13 -16 -18 -17 -35 -6 -28 17 -40 15 -17 -3 46 -35 76 -5 76 75 0 48
-3 58 -15 54 -11 -5 -12 -11 -5 -24 18 -33 -10 -67 -44 -54 -33 13 -28 60 8
74 17 7 17 9 4 9 -10 1 -25 -10 -34 -24z"/>
<path d="M8538 1069 c-28 -16 -23 -67 7 -81 22 -10 29 -9 43 6 16 17 16 18 -5
5 -18 -10 -24 -10 -37 0 -26 22 -19 31 24 31 44 0 49 8 22 33 -21 19 -30 20
-54 6z m50 -16 c2 -9 -7 -13 -27 -13 -31 0 -42 14 -18 23 19 8 40 3 45 -10z"/>
<path d="M8641 1071 c-16 -10 -8 -41 10 -41 8 0 8 4 -1 15 -17 21 14 32 38 14
15 -13 16 -12 3 4 -15 19 -29 21 -50 8z"/>
<path d="M8680 1021 c12 -8 12 -13 2 -23 -10 -10 -17 -10 -32 0 -11 7 -20 8
-20 3 0 -13 34 -23 54 -15 20 8 17 36 -4 41 -13 4 -13 3 0 -6z"/>
</g>
</svg>
