<?xml version="1.0" standalone="no"?>
<!DOCTYPE svg PUBLIC "-//W3C//DTD SVG 20010904//EN"
 "http://www.w3.org/TR/2001/REC-SVG-20010904/DTD/svg10.dtd">
<svg version="1.0" xmlns="http://www.w3.org/2000/svg"
 width="1366.000000pt" height="625.000000pt" viewBox="0 0 1366.000000 625.000000"
 preserveAspectRatio="xMidYMid meet">

<g transform="translate(0.000000,625.000000) scale(0.100000,-0.100000)"
fill="#000000" stroke="none">
<path d="M1270 6099 c0 -5 5 -7 10 -4 6 3 10 8 10 11 0 2 -4 4 -10 4 -5 0 -10
-5 -10 -11z"/>
<path d="M1311 6059 l-1 -56 31 1 c59 2 66 71 8 71 -15 0 -26 7 -31 20 -3 12
-6 -4 -7 -36z m59 -5 c11 -12 10 -18 -3 -32 -16 -15 -18 -15 -34 0 -13 14 -14
20 -3 32 7 9 16 16 20 16 4 0 13 -7 20 -16z"/>
<path d="M2720 6055 c0 -30 5 -55 10 -55 6 0 10 25 10 55 0 30 -4 55 -10 55
-5 0 -10 -25 -10 -55z"/>
<path d="M3180 6099 c0 -5 5 -7 10 -4 6 3 10 8 10 11 0 2 -4 4 -10 4 -5 0 -10
-5 -10 -11z"/>
<path d="M3223 6055 c0 -33 2 -45 4 -27 2 18 2 45 0 60 -2 15 -4 0 -4 -33z"/>
<path d="M3361 6059 l-1 -56 31 1 c59 2 66 71 8 71 -15 0 -26 7 -31 20 -3 12
-6 -4 -7 -36z m59 -4 c10 -12 10 -18 0 -30 -25 -30 -61 -7 -46 30 3 8 12 15
19 15 8 0 20 -7 27 -15z"/>
<path d="M3463 6055 c0 -33 2 -45 4 -27 2 18 2 45 0 60 -2 15 -4 0 -4 -33z"/>
<path d="M3632 6093 c-4 -10 -5 -36 -1 -58 l6 -40 2 37 c0 20 7 39 14 41 9 4
8 6 -2 6 -11 1 -11 4 -1 16 8 10 9 15 2 15 -6 0 -15 -8 -20 -17z"/>
<path d="M4472 6055 c0 -35 2 -52 7 -42 6 17 8 17 20 3 7 -9 18 -16 24 -16 5
0 2 9 -8 20 -17 19 -17 21 0 40 10 11 13 20 8 20 -6 0 -17 -7 -24 -17 -13 -15
-15 -13 -20 18 -5 26 -7 21 -7 -26z"/>
<path d="M1191 6086 c-14 -17 -7 -36 13 -36 8 0 19 -7 26 -15 10 -12 9 -16 -4
-21 -9 -3 -23 -1 -31 6 -10 8 -15 9 -15 1 0 -13 45 -26 59 -16 19 11 12 35
-14 47 -26 12 -34 38 -12 38 7 0 19 -6 26 -12 11 -11 13 -10 9 2 -6 21 -42 24
-57 6z"/>
<path d="M2272 6053 c-2 -52 -1 -53 26 -52 22 1 23 2 5 6 -18 4 -23 12 -26 51
l-3 47 -2 -52z"/>
<path d="M1270 6040 c0 -22 5 -40 10 -40 6 0 10 18 10 40 0 22 -4 40 -10 40
-5 0 -10 -18 -10 -40z"/>
<path d="M1422 6068 c-7 -7 -12 -22 -12 -35 0 -27 42 -42 65 -23 28 23 11 70
-25 70 -9 0 -21 -5 -28 -12z m47 -11 c15 -19 -10 -53 -33 -44 -16 6 -22 38 -9
50 10 11 30 8 42 -6z"/>
<path d="M1511 6035 l2 -40 6 35 c8 45 38 53 47 13 10 -46 12 -50 13 -17 1 36
-15 54 -47 51 -19 -1 -22 -7 -21 -42z"/>
<path d="M1613 6073 c-7 -2 -13 -17 -13 -33 0 -31 24 -46 54 -34 20 8 21 -9 1
-26 -12 -10 -19 -10 -27 -2 -17 17 -33 15 -18 -3 15 -18 42 -19 58 -3 7 7 12
33 12 58 0 43 -2 46 -27 47 -16 1 -34 -1 -40 -4z m47 -18 c10 -12 10 -18 0
-30 -25 -30 -61 -7 -46 30 3 8 12 15 19 15 8 0 20 -7 27 -15z"/>
<path d="M1700 6052 c0 -36 16 -52 52 -52 26 0 28 3 28 40 0 48 -17 54 -22 8
-2 -21 -8 -33 -18 -33 -10 0 -16 12 -18 33 -4 39 -22 43 -22 4z"/>
<path d="M1801 6036 l2 -41 6 35 c4 26 11 35 26 35 15 0 21 -9 26 -35 l6 -35
4 35 c3 27 9 35 24 35 15 0 22 -9 27 -35 l6 -35 -1 40 -2 40 -62 1 -63 1 1
-41z"/>
<path d="M1950 6052 c0 -36 16 -52 52 -52 26 0 28 3 28 40 0 48 -17 54 -22 8
-2 -21 -8 -33 -18 -33 -10 0 -16 12 -18 33 -4 39 -22 43 -22 4z"/>
<path d="M2057 6073 c-13 -12 -7 -23 18 -35 29 -13 23 -32 -8 -22 -17 5 -19 3
-11 -6 14 -14 46 -10 51 7 3 7 -7 18 -21 24 -29 14 -24 33 6 23 14 -4 18 -2
14 5 -8 12 -39 15 -49 4z"/>
<path d="M2130 6060 c-18 -33 4 -60 45 -58 33 1 35 3 35 38 0 35 -2 37 -35 38
-25 1 -38 -4 -45 -18z m55 -20 c0 -29 -32 -41 -41 -16 -9 24 4 48 23 44 12 -2
18 -12 18 -28z"/>
<path d="M2330 6052 c0 -36 16 -52 52 -52 26 0 28 3 28 40 0 48 -17 54 -22 8
-2 -21 -8 -33 -18 -33 -10 0 -16 12 -18 33 -4 39 -22 43 -22 4z"/>
<path d="M2430 6040 c0 -22 5 -40 10 -40 6 0 10 16 10 36 0 28 3 35 18 32 11
-2 18 -14 20 -36 4 -35 22 -45 22 -11 0 37 -19 59 -50 59 -28 0 -30 -2 -30
-40z"/>
<path d="M2532 6068 c-28 -28 -1 -75 38 -65 13 3 20 0 20 -9 0 -21 -28 -28
-47 -13 -14 12 -16 12 -11 -1 3 -9 17 -15 34 -15 28 0 29 2 32 55 3 55 2 56
-26 58 -15 1 -33 -3 -40 -10z m53 -28 c0 -29 -32 -41 -41 -16 -9 24 4 48 23
44 12 -2 18 -12 18 -28z"/>
<path d="M2630 6061 c-13 -24 2 -61 25 -61 22 0 45 11 45 22 0 6 -6 5 -15 -2
-16 -13 -45 -7 -45 10 0 5 14 10 31 10 24 0 30 4 27 18 -5 26 -54 28 -68 3z
m55 -1 c4 -6 -5 -10 -20 -10 -15 0 -24 4 -20 10 3 6 12 10 20 10 8 0 17 -4 20
-10z"/>
<path d="M2766 6064 c-19 -18 -19 -20 -6 -45 14 -25 56 -25 70 1 23 44 -29 80
-64 44z m49 -24 c0 -16 -6 -26 -18 -28 -19 -4 -32 20 -23 44 9 25 41 13 41
-16z"/>
<path d="M2902 6068 c-29 -29 -4 -70 42 -66 23 2 26 7 26 38 0 32 -3 36 -28
38 -15 1 -33 -3 -40 -10z m47 -12 c13 -16 4 -46 -14 -46 -7 0 -18 7 -25 15
-10 12 -10 18 0 30 15 19 24 19 39 1z"/>
<path d="M2990 6075 c0 -16 30 -75 38 -75 5 0 16 18 25 40 8 22 12 40 7 40 -4
0 -13 -15 -20 -32 l-11 -33 -14 33 c-12 28 -25 42 -25 27z"/>
<path d="M3080 6060 c-18 -33 4 -60 45 -58 33 1 35 3 35 38 0 35 -2 37 -35 38
-25 1 -38 -4 -45 -18z m55 -20 c0 -16 -6 -26 -18 -28 -19 -4 -32 20 -23 44 9
25 41 13 41 -16z"/>
<path d="M3180 6040 c0 -22 5 -40 10 -40 6 0 10 18 10 40 0 22 -4 40 -10 40
-5 0 -10 -18 -10 -40z"/>
<path d="M3262 6068 c-29 -29 -4 -70 42 -66 23 2 26 7 26 38 0 32 -3 36 -28
38 -15 1 -33 -3 -40 -10z m47 -12 c13 -16 4 -46 -14 -46 -7 0 -18 7 -25 15
-10 12 -10 18 0 30 15 19 24 19 39 1z"/>
<path d="M3502 6068 c-7 -7 -12 -20 -12 -29 0 -36 57 -53 68 -19 5 13 3 13
-12 1 -15 -12 -19 -12 -34 2 -15 16 -14 17 21 17 20 0 37 4 37 8 0 14 -23 32
-40 32 -9 0 -21 -5 -28 -12z m43 -8 c3 -5 -3 -10 -14 -10 -12 0 -21 5 -21 10
0 6 6 10 14 10 8 0 18 -4 21 -10z"/>
<path d="M3682 6068 c-30 -30 0 -75 43 -64 19 5 25 13 25 35 0 38 -41 56 -68
29z m53 -28 c0 -16 -6 -26 -18 -28 -19 -4 -32 20 -23 44 9 25 41 13 41 -16z"/>
<path d="M3770 6040 c0 -22 5 -40 10 -40 6 0 10 13 10 28 0 15 5 33 12 40 9 9
7 12 -10 12 -19 0 -22 -5 -22 -40z"/>
<path d="M3870 6060 c-18 -33 4 -60 45 -58 33 1 35 3 35 38 0 35 -2 37 -35 38
-25 1 -38 -4 -45 -18z m55 -20 c0 -16 -6 -26 -18 -28 -19 -4 -32 20 -23 44 9
25 41 13 41 -16z"/>
<path d="M3971 6036 l2 -41 6 35 c4 26 11 35 26 35 15 0 22 -9 27 -35 l6 -35
-1 40 c-2 38 -4 40 -34 41 -32 1 -33 0 -32 -40z"/>
<path d="M4060 6076 c0 -2 7 -19 14 -38 8 -19 12 -46 9 -59 -9 -37 2 -20 31
44 13 31 21 57 16 57 -4 0 -13 -15 -20 -32 l-11 -33 -14 33 c-12 27 -25 42
-25 28z"/>
<path d="M4192 6048 c16 -49 26 -55 39 -22 l11 29 10 -27 c12 -34 24 -36 32
-4 3 13 9 32 13 42 4 12 3 15 -5 10 -7 -4 -12 -16 -12 -27 0 -27 -17 -24 -24
6 -9 34 -21 31 -33 -7 l-10 -33 -7 33 c-4 17 -11 32 -16 32 -5 0 -4 -15 2 -32z"/>
<path d="M4320 6065 c-26 -32 13 -81 48 -59 34 22 22 74 -18 74 -10 0 -23 -7
-30 -15z m50 -11 c11 -12 10 -18 -3 -32 -16 -15 -18 -15 -34 0 -13 14 -14 20
-3 32 7 9 16 16 20 16 4 0 13 -7 20 -16z"/>
<path d="M4411 6035 c1 -27 3 -32 6 -15 3 14 12 33 20 42 14 15 13 17 -6 15
-18 -1 -21 -7 -20 -42z"/>
<path d="M4592 6068 c-7 -7 -12 -22 -12 -35 0 -27 42 -42 65 -23 28 23 11 70
-25 70 -9 0 -21 -5 -28 -12z m47 -11 c15 -19 -10 -53 -33 -44 -16 6 -22 38 -9
50 10 11 30 8 42 -6z"/>
<path d="M4681 6035 c1 -27 3 -32 6 -15 3 14 12 33 20 42 14 15 13 17 -6 15
-18 -1 -21 -7 -20 -42z"/>
<path d="M1658 5858 c-2 -7 -2 -29 2 -48 3 -25 11 -35 25 -37 11 -2 14 0 8 3
-16 7 -17 64 -2 64 6 0 4 7 -5 15 -18 18 -23 19 -28 3z"/>
<path d="M1180 5788 c0 -32 4 -58 10 -58 6 0 10 11 10 24 0 19 4 22 24 19 31
-6 52 27 36 57 -7 14 -20 19 -45 18 l-35 -1 0 -59z m65 22 c0 -29 -32 -41 -41
-16 -9 24 4 48 23 44 12 -2 18 -12 18 -28z"/>
<path d="M1291 5805 c2 -33 3 -35 6 -10 3 16 12 35 21 41 15 12 15 13 -5 11
-20 -1 -23 -6 -22 -42z"/>
<path d="M1352 5838 c-7 -7 -12 -22 -12 -35 0 -27 42 -42 65 -23 28 23 11 70
-25 70 -9 0 -21 -5 -28 -12z m47 -11 c15 -19 -10 -53 -33 -44 -16 6 -22 38 -9
50 10 11 30 8 42 -6z"/>
<path d="M1440 5796 c0 -34 -5 -56 -12 -59 -8 -3 -6 -6 5 -6 14 -1 17 8 17 59
0 33 -2 60 -5 60 -3 0 -5 -24 -5 -54z"/>
<path d="M1482 5838 c-7 -7 -12 -20 -12 -29 0 -36 57 -53 68 -19 5 13 3 13
-12 1 -15 -12 -19 -12 -34 2 -15 16 -14 17 21 17 20 0 37 4 37 8 0 14 -23 32
-40 32 -9 0 -21 -5 -28 -12z m43 -8 c3 -5 -3 -10 -14 -10 -12 0 -21 5 -21 10
0 6 6 10 14 10 8 0 18 -4 21 -10z"/>
<path d="M1570 5830 c-13 -23 2 -60 25 -60 22 0 45 11 45 22 0 6 -6 5 -15 -2
-20 -17 -45 -5 -45 20 0 25 25 37 45 20 9 -7 15 -8 15 -2 0 11 -23 22 -45 22
-8 0 -19 -9 -25 -20z"/>
<path d="M987 4633 c-13 -12 -7 -41 10 -47 21 -8 48 17 40 38 -6 16 -38 22
-50 9z"/>
<path d="M1100 4465 l0 -165 25 0 c15 0 25 6 25 14 0 12 6 12 39 -1 49 -19 84
-11 122 27 25 24 29 36 29 84 0 47 -4 61 -29 88 -25 28 -36 33 -74 33 -30 0
-52 -6 -66 -19 l-21 -19 0 61 c0 59 -1 62 -25 62 l-25 0 0 -165z m171 16 c17
-18 29 -40 29 -56 0 -31 -49 -85 -78 -85 -11 0 -31 9 -46 21 -21 16 -26 29
-26 64 0 35 5 48 26 64 36 28 60 26 95 -8z"/>
<path d="M5280 4465 c0 -158 1 -165 20 -165 19 0 20 7 20 165 0 158 -1 165
-20 165 -19 0 -20 -7 -20 -165z"/>
<path d="M764 4600 c-28 -11 -54 -48 -54 -78 0 -32 40 -69 91 -82 55 -15 69
-26 69 -56 0 -46 -67 -59 -98 -19 -22 28 -62 34 -62 10 0 -26 45 -63 84 -70
65 -13 126 29 126 85 0 41 -20 59 -90 83 -54 18 -66 26 -68 46 -7 47 52 67 88
31 21 -21 60 -27 60 -9 0 50 -84 84 -146 59z"/>
<path d="M3940 4455 l0 -155 75 0 c68 0 75 2 75 20 0 18 -7 20 -55 20 l-55 0
0 135 c0 128 -1 135 -20 135 -19 0 -20 -7 -20 -155z"/>
<path d="M990 4425 c0 -118 1 -125 20 -125 19 0 20 7 20 125 0 118 -1 125 -20
125 -19 0 -20 -7 -20 -125z"/>
<path d="M1455 4536 c-52 -23 -70 -52 -70 -111 0 -46 4 -58 29 -84 79 -82 206
-29 206 87 0 52 -23 90 -67 108 -40 17 -59 17 -98 0z m78 -37 c27 -12 47 -47
47 -80 0 -27 -53 -79 -80 -79 -34 0 -70 44 -70 85 0 25 8 44 25 60 27 28 42
30 78 14z"/>
<path d="M1680 4425 l0 -125 25 0 c25 0 25 1 25 89 0 82 2 91 22 105 30 21 54
20 78 -4 17 -17 20 -33 20 -105 0 -84 0 -85 25 -85 25 0 25 1 25 79 0 96 -13
137 -51 156 -35 19 -57 19 -91 1 -24 -13 -28 -13 -28 0 0 8 -10 14 -25 14
l-25 0 0 -125z"/>
<path d="M2013 4535 c-92 -40 -81 -197 16 -226 35 -10 45 -9 82 9 l41 21 -5
-42 c-10 -73 -74 -101 -123 -52 -25 25 -64 34 -64 15 0 -5 13 -24 29 -42 26
-29 34 -32 86 -32 52 0 60 3 86 32 l29 32 0 150 c0 143 -1 150 -20 150 -13 0
-20 -7 -20 -20 0 -20 0 -20 -32 0 -38 23 -61 24 -105 5z m109 -55 c25 -26 29
-36 24 -63 -7 -36 -47 -77 -75 -77 -10 0 -30 9 -45 21 -21 16 -26 29 -26 64 0
35 5 48 26 64 36 29 60 26 96 -9z"/>
<path d="M2260 4465 c0 -95 12 -130 51 -151 35 -18 57 -18 92 0 23 13 27 13
27 0 0 -8 10 -14 25 -14 l25 0 0 125 0 125 -25 0 c-25 0 -25 -1 -25 -85 0 -72
-3 -88 -20 -105 -24 -24 -48 -25 -78 -4 -20 14 -22 23 -22 105 0 88 0 89 -25
89 -25 0 -25 -1 -25 -85z"/>
<path d="M2550 4425 c0 -118 1 -125 20 -125 18 0 20 7 20 80 0 73 3 83 25 105
29 30 58 32 85 5 17 -17 20 -33 20 -105 0 -76 2 -85 19 -85 16 0 19 10 23 87
4 74 8 89 27 105 30 23 56 23 81 -2 17 -17 20 -33 20 -105 l0 -85 26 0 26 0
-4 95 c-4 88 -6 98 -31 123 -35 35 -95 37 -130 4 -23 -22 -24 -22 -41 -3 -26
29 -70 35 -107 17 -39 -20 -39 -20 -39 -1 0 8 -9 15 -20 15 -19 0 -20 -7 -20
-125z"/>
<path d="M3000 4469 c0 -104 18 -144 70 -160 31 -10 44 -9 70 5 40 20 40 20
40 1 0 -8 9 -15 20 -15 19 0 20 7 20 125 0 116 -1 125 -19 125 -16 0 -19 -10
-23 -87 -4 -74 -8 -89 -27 -105 -30 -23 -56 -23 -81 2 -17 17 -20 33 -20 105
0 84 0 85 -25 85 -25 0 -25 -1 -25 -81z"/>
<path d="M3323 4536 c-36 -16 -51 -53 -34 -84 6 -12 35 -28 68 -39 38 -13 59
-26 61 -38 8 -37 -53 -48 -83 -15 -20 23 -55 27 -55 7 0 -21 43 -56 75 -63 64
-12 125 39 106 89 -7 19 -24 30 -68 44 -38 13 -59 26 -61 38 -8 36 48 47 75
15 20 -23 53 -27 53 -6 0 48 -79 78 -137 52z"/>
<path d="M3573 4535 c-92 -40 -81 -197 16 -226 35 -10 45 -9 80 8 40 20 41 20
41 2 0 -12 7 -19 20 -19 19 0 20 7 20 125 0 118 -1 125 -20 125 -13 0 -20 -7
-20 -19 0 -18 -1 -18 -37 0 -44 22 -57 23 -100 4z m108 -54 c17 -18 29 -40 29
-56 0 -31 -49 -85 -78 -85 -11 0 -31 9 -46 21 -21 16 -26 29 -26 64 0 35 5 48
26 64 36 28 60 26 95 -8z"/>
<path d="M4132 4455 c3 -82 7 -98 27 -119 32 -33 73 -41 112 -22 39 20 39 20
39 1 0 -8 9 -15 20 -15 19 0 20 7 20 125 0 116 -1 125 -19 125 -16 0 -19 -10
-23 -87 -4 -74 -8 -89 -27 -105 -30 -23 -56 -23 -81 2 -17 17 -20 33 -20 105
l0 85 -26 0 -26 0 4 -95z"/>
<path d="M4420 4425 l0 -125 25 0 c24 0 24 2 27 92 3 89 4 93 31 108 24 13 30
13 55 0 26 -15 27 -19 30 -108 3 -90 3 -92 27 -92 25 0 25 2 25 81 0 104 -18
144 -70 160 -31 9 -44 9 -69 -4 -26 -13 -31 -13 -31 -1 0 8 -10 14 -25 14
l-25 0 0 -125z"/>
<path d="M4753 4535 c-83 -36 -82 -179 2 -219 43 -21 53 -20 98 4 l37 20 0
-35 c0 -43 -37 -85 -74 -85 -13 0 -38 11 -54 25 -29 25 -62 33 -62 16 0 -21
44 -62 79 -72 48 -14 102 1 131 38 18 23 20 40 20 174 0 142 -1 149 -20 149
-13 0 -20 -7 -20 -19 0 -18 -1 -18 -37 0 -44 22 -57 23 -100 4z m90 -36 c25
-11 47 -47 47 -74 0 -27 -22 -63 -47 -74 -35 -16 -49 -14 -78 12 -38 32 -38
92 0 124 29 26 43 28 78 12z"/>
<path d="M5053 4535 c-60 -26 -82 -118 -43 -182 37 -61 145 -67 185 -10 14 20
14 22 -5 25 -11 2 -30 -4 -42 -12 -12 -9 -33 -16 -46 -16 -23 0 -72 40 -72 60
0 6 36 10 95 10 l95 0 0 25 c0 42 -29 85 -65 101 -42 17 -61 17 -102 -1z m95
-41 c43 -30 28 -44 -49 -44 -73 0 -75 2 -41 43 19 21 60 22 90 1z"/>
<path d="M5453 4539 c-49 -14 -73 -52 -73 -114 0 -91 69 -142 154 -113 53 18
78 53 78 112 0 57 -22 93 -67 112 -39 16 -47 16 -92 3z m92 -54 c50 -49 17
-145 -50 -145 -38 0 -75 42 -75 85 0 43 37 85 75 85 14 0 37 -11 50 -25z"/>
<path d="M4976 3924 c-16 -63 -26 -118 -23 -121 6 -5 11 13 42 137 9 36 18 73
21 83 3 9 1 17 -3 17 -5 0 -22 -52 -37 -116z"/>
<path d="M1435 3990 c-3 -5 -1 -10 4 -10 6 0 11 5 11 10 0 6 -2 10 -4 10 -3 0
-8 -4 -11 -10z"/>
<path d="M2453 3920 c0 -47 2 -66 4 -42 2 23 2 61 0 85 -2 23 -4 4 -4 -43z"/>
<path d="M2500 3920 c0 -47 4 -80 10 -80 6 0 10 33 10 80 0 47 -4 80 -10 80
-6 0 -10 -33 -10 -80z"/>
<path d="M3113 3920 c0 -47 2 -72 6 -57 l6 29 24 -26 c14 -14 29 -26 35 -26 5
0 -3 14 -19 30 l-29 30 29 30 c16 17 24 30 19 30 -6 0 -21 -12 -35 -26 l-24
-26 -6 49 c-5 38 -6 30 -6 -37z"/>
<path d="M3632 3920 c-1 -51 2 -80 7 -71 7 10 13 11 30 1 29 -15 60 -4 71 26
20 50 -25 98 -69 75 -28 -15 -29 -15 -34 22 -2 17 -4 -6 -5 -53z m93 -1 c16
-50 -31 -83 -66 -48 -10 10 -19 24 -19 29 0 6 9 19 19 29 23 23 58 18 66 -10z"/>
<path d="M4393 3920 c0 -47 2 -66 4 -42 2 23 2 61 0 85 -2 23 -4 4 -4 -43z"/>
<path d="M5523 3920 c0 -47 2 -66 4 -42 2 23 2 61 0 85 -2 23 -4 4 -4 -43z"/>
<path d="M746 3982 c-14 -24 -52 -142 -45 -142 4 0 11 9 14 20 5 15 15 20 42
20 26 0 36 -5 40 -20 3 -11 10 -20 15 -20 5 0 8 4 6 8 -1 4 -14 38 -27 75 -24
64 -34 77 -45 59z m32 -64 c11 -27 10 -28 -18 -28 -17 0 -30 2 -30 4 0 1 5 18
11 35 12 34 18 33 37 -11z"/>
<path d="M1931 3978 c0 -10 -6 -18 -12 -18 -8 0 -8 -4 -1 -13 6 -7 12 -33 14
-57 2 -36 7 -45 23 -48 18 -2 18 -2 3 8 -12 7 -18 24 -18 50 0 27 6 42 18 49
15 9 15 10 0 11 -9 0 -19 8 -21 18 -4 16 -5 16 -6 0z"/>
<path d="M2202 3913 c1 -43 3 -61 5 -40 4 34 7 37 36 38 l32 1 -30 7 c-24 5
-30 12 -30 31 0 21 6 26 35 31 l35 6 -42 2 -43 1 2 -77z"/>
<path d="M2628 3979 c-32 -18 -22 -49 22 -66 27 -11 40 -22 40 -35 0 -10 -2
-18 -4 -18 -2 0 -11 -3 -19 -6 -8 -3 -22 2 -31 12 -9 9 -20 13 -24 9 -9 -9 27
-35 49 -35 22 0 49 26 49 47 0 8 -18 22 -40 30 -25 10 -40 22 -40 33 0 25 24
31 49 14 18 -13 21 -13 21 -1 0 25 -41 34 -72 16z"/>
<path d="M2751 3978 c0 -9 -7 -19 -13 -21 -10 -4 -10 -6 0 -6 8 -1 12 -18 12
-50 0 -35 4 -51 16 -55 29 -11 39 -6 16 10 -31 22 -31 81 1 94 l22 9 -22 0
c-12 1 -24 9 -26 19 -4 15 -5 15 -6 0z"/>
<path d="M3270 3983 c0 -23 38 -137 47 -140 5 -2 18 25 28 59 l18 63 20 -62
c12 -35 24 -63 29 -63 7 0 48 121 48 142 0 27 -18 -8 -29 -57 -7 -30 -16 -53
-21 -50 -5 3 -14 30 -21 60 -7 31 -17 54 -23 52 -6 -2 -17 -27 -26 -55 -8 -28
-18 -54 -22 -57 -3 -4 -12 19 -19 50 -7 31 -16 58 -21 61 -4 3 -8 2 -8 -3z"/>
<path d="M3840 3915 l0 -78 41 6 c50 7 79 31 79 67 0 42 -29 70 -78 77 l-42 6
0 -78z m78 48 c34 -30 37 -59 7 -89 -15 -15 -34 -24 -48 -22 -19 3 -22 10 -25
52 -2 27 -1 55 2 62 7 19 40 17 64 -3z"/>
<path d="M5050 3915 c0 -43 4 -75 10 -75 6 0 10 15 10 34 0 30 4 35 28 39 l27
4 -27 2 c-24 1 -28 5 -28 30 0 27 4 30 38 34 34 3 33 4 -10 5 l-48 2 0 -75z"/>
<path d="M912 3870 c1 -52 3 -76 5 -52 5 46 5 47 34 31 44 -23 89 25 69 75
-11 30 -42 41 -71 26 -17 -10 -23 -9 -30 1 -5 8 -8 -25 -7 -81z m93 49 c16
-50 -31 -83 -66 -48 -10 10 -19 24 -19 29 0 6 9 19 19 29 23 23 58 18 66 -10z"/>
<path d="M1072 3944 c-52 -36 -4 -122 53 -96 15 7 25 8 25 2 0 -6 5 -10 10
-10 6 0 10 27 10 60 0 33 -4 60 -10 60 -5 0 -10 -5 -10 -10 0 -7 -6 -7 -19 0
-26 13 -33 13 -59 -6z m70 -18 c26 -38 -12 -87 -52 -66 -25 13 -27 65 -3 78
18 11 44 5 55 -12z"/>
<path d="M1214 3945 c-19 -15 -19 -15 5 -35 13 -11 29 -20 37 -20 17 0 19 -27
2 -33 -7 -2 -21 0 -31 5 -10 5 -21 7 -24 5 -2 -3 5 -11 17 -17 17 -9 29 -9 47
-1 33 15 26 43 -15 55 -32 9 -43 30 -19 39 6 2 20 0 30 -5 10 -5 17 -5 17 1 0
8 -23 21 -39 21 -4 0 -16 -7 -27 -15z"/>
<path d="M1332 3948 c-21 -21 -13 -37 23 -52 19 -8 35 -19 35 -24 0 -16 -32
-23 -47 -11 -7 7 -16 10 -18 7 -12 -12 26 -30 50 -24 39 10 33 43 -12 61 -34
15 -36 17 -20 32 13 13 20 15 29 5 17 -17 33 -15 18 3 -15 18 -42 19 -58 3z"/>
<path d="M1443 3900 c0 -36 2 -50 4 -32 2 17 2 47 0 65 -2 17 -4 3 -4 -33z"/>
<path d="M1500 3940 c-11 -11 -20 -29 -20 -40 0 -11 9 -29 20 -40 11 -11 29
-20 40 -20 11 0 29 9 40 20 11 11 20 29 20 40 0 11 -9 29 -20 40 -11 11 -29
20 -40 20 -11 0 -29 -9 -40 -20z m64 -3 c12 -9 17 -23 14 -42 -3 -27 -7 -30
-38 -30 -31 0 -35 3 -38 30 -3 26 17 55 38 55 3 0 14 -6 24 -13z"/>
<path d="M1630 3899 c0 -33 4 -59 10 -59 6 0 10 20 10 44 0 88 60 88 71 0 l6
-49 1 52 c2 58 -5 66 -60 69 l-38 2 0 -59z"/>
<path d="M1788 3949 c-13 -7 -18 -22 -18 -50 0 -33 4 -41 26 -51 20 -9 30 -9
46 1 17 11 22 10 29 -1 5 -8 9 12 9 52 0 45 -3 60 -10 50 -7 -12 -12 -12 -22
-2 -14 14 -37 15 -60 1z m73 -31 c8 -14 6 -25 -6 -44 -18 -28 -37 -31 -59 -8
-22 22 -20 50 5 68 25 17 45 12 60 -16z"/>
<path d="M2018 3949 c-37 -21 -14 -109 28 -109 21 0 54 19 54 31 0 6 -10 3
-22 -5 -28 -20 -33 -20 -52 0 -26 26 -18 34 34 34 54 0 61 9 30 40 -22 22 -46
25 -72 9z m53 -9 c31 -17 22 -30 -21 -30 -42 0 -52 12 -22 29 21 13 20 13 43
1z"/>
<path d="M2312 3913 c-2 -58 5 -66 60 -69 l38 -2 0 59 c0 33 -4 59 -10 59 -5
0 -10 -20 -10 -44 0 -88 -60 -88 -71 0 l-6 49 -1 -52z"/>
<path d="M2842 3944 c-52 -36 -5 -122 53 -96 18 8 25 8 29 -1 2 -7 5 17 5 53
0 36 -3 60 -7 53 -5 -8 -13 -9 -22 -3 -21 13 -32 12 -58 -6z m73 -25 c12 -18
-4 -57 -26 -64 -24 -8 -59 19 -59 46 0 26 39 50 61 38 10 -5 21 -14 24 -20z"/>
<path d="M2988 3949 c-13 -7 -18 -22 -18 -50 0 -32 4 -41 25 -51 27 -12 75 2
75 22 0 6 -10 4 -24 -5 -39 -26 -76 6 -61 54 8 27 34 34 61 16 13 -9 24 -11
24 -6 0 12 -33 31 -52 31 -7 0 -21 -5 -30 -11z"/>
<path d="M3508 3949 c-37 -21 -14 -109 28 -109 21 0 54 19 54 31 0 6 -10 3
-22 -5 -28 -20 -33 -20 -52 0 -26 26 -18 34 34 34 54 0 61 9 30 40 -22 22 -46
25 -72 9z m53 -9 c31 -17 22 -30 -21 -30 -42 0 -52 12 -22 29 21 13 20 13 43
1z"/>
<path d="M4008 3949 c-37 -21 -14 -109 28 -109 21 0 54 19 54 31 0 6 -10 3
-22 -5 -28 -20 -33 -20 -52 0 -26 26 -18 34 34 34 54 0 61 9 30 40 -22 22 -46
25 -72 9z m53 -9 c31 -17 22 -30 -21 -30 -42 0 -52 12 -22 29 21 13 20 13 43
1z"/>
<path d="M4135 3903 c12 -32 27 -59 33 -61 11 -3 58 106 49 115 -4 3 -10 -3
-13 -13 -4 -10 -13 -35 -21 -54 l-15 -35 -20 53 c-10 28 -23 52 -28 52 -5 0 2
-26 15 -57z"/>
<path d="M4268 3949 c-37 -21 -14 -109 28 -109 21 0 54 19 54 31 0 6 -10 3
-22 -5 -28 -20 -33 -20 -52 0 -26 26 -18 34 34 34 54 0 61 9 30 40 -22 22 -46
25 -72 9z m53 -9 c31 -17 22 -30 -21 -30 -42 0 -52 12 -22 29 21 13 20 13 43
1z"/>
<path d="M4462 3944 c-22 -15 -30 -57 -14 -80 27 -42 102 -15 102 36 0 28 -29
60 -55 60 -6 0 -21 -7 -33 -16z m69 -25 c11 -21 -2 -54 -23 -62 -22 -7 -47 4
-53 24 -18 57 48 90 76 38z"/>
<path d="M4580 3870 c0 -53 4 -90 10 -90 6 0 10 18 10 40 0 38 1 39 24 29 30
-14 63 2 72 35 12 49 -34 89 -76 66 -13 -7 -20 -7 -20 0 0 5 -4 10 -10 10 -6
0 -10 -37 -10 -90z m98 27 c-3 -29 -6 -32 -38 -32 -32 0 -35 3 -38 33 -3 26 1
34 20 41 36 14 60 -4 56 -42z"/>
<path d="M4748 3949 c-37 -21 -14 -109 28 -109 21 0 54 19 54 31 0 6 -10 3
-22 -5 -28 -20 -33 -20 -52 0 -26 26 -18 34 34 34 54 0 61 9 30 40 -22 22 -46
25 -72 9z m53 -9 c31 -17 22 -30 -21 -30 -42 0 -52 12 -22 29 21 13 20 13 43
1z"/>
<path d="M4873 3900 c0 -46 2 -53 4 -22 3 28 11 47 24 55 25 15 25 31 0 17
-14 -7 -21 -6 -24 3 -3 6 -5 -17 -4 -53z"/>
<path d="M5160 3900 c0 -33 4 -60 10 -60 6 0 10 21 10 46 0 37 4 47 20 51 11
3 20 9 20 15 0 5 -9 4 -20 -2 -14 -7 -20 -7 -20 0 0 5 -4 10 -10 10 -6 0 -10
-27 -10 -60z"/>
<path d="M5262 3944 c-32 -22 -27 -73 9 -93 24 -13 29 -13 54 3 15 10 24 20
21 23 -3 4 -15 -2 -25 -11 -15 -14 -24 -15 -40 -6 -38 20 -26 40 24 40 51 0
60 18 23 44 -28 20 -38 20 -66 0z m72 -20 c4 -11 -4 -14 -34 -14 -42 0 -52 12
-24 28 21 12 51 4 58 -14z"/>
<path d="M5402 3944 c-52 -36 -4 -122 53 -96 14 7 25 16 25 22 0 6 -10 4 -23
-5 -21 -13 -25 -13 -45 1 -31 21 -19 34 34 34 32 0 44 4 44 14 0 16 -37 46
-55 46 -6 0 -21 -7 -33 -16z m68 -24 c0 -6 -19 -10 -42 -10 l-43 1 23 19 c18
15 28 17 43 10 10 -6 19 -15 19 -20z"/>
<path d="M5592 3944 c-52 -36 -5 -122 53 -96 18 8 25 8 29 -1 2 -7 5 17 5 53
0 36 -3 60 -7 53 -5 -8 -13 -9 -22 -3 -21 13 -32 12 -58 -6z m73 -25 c12 -18
-4 -57 -26 -64 -24 -8 -59 19 -59 46 0 26 39 50 61 38 10 -5 21 -14 24 -20z"/>
<path d="M5720 3899 c0 -33 4 -59 10 -59 6 0 10 20 10 44 0 88 60 88 71 0 l6
-49 1 52 c2 58 -5 66 -60 69 l-38 2 0 -59z"/>
<path d="M5882 3944 c-52 -36 -4 -122 53 -96 14 7 25 16 25 22 0 6 -11 3 -25
-6 -24 -16 -27 -16 -45 1 -11 10 -20 26 -20 35 0 9 9 25 20 35 18 17 21 17 45
1 14 -9 25 -12 25 -7 0 10 -32 31 -47 31 -5 0 -19 -7 -31 -16z"/>
<path d="M6012 3944 c-32 -22 -27 -73 9 -93 24 -13 29 -13 54 3 15 10 24 20
21 23 -3 4 -15 -2 -25 -11 -15 -14 -24 -15 -40 -6 -38 20 -26 40 24 40 51 0
60 18 23 44 -28 20 -38 20 -66 0z m72 -20 c4 -11 -4 -14 -34 -14 -42 0 -52 12
-24 28 21 12 51 4 58 -14z"/>
<path d="M6130 3900 c0 -33 4 -60 10 -60 6 0 10 21 10 46 0 37 4 47 20 51 11
3 20 9 20 15 0 5 -9 4 -20 -2 -14 -7 -20 -7 -20 0 0 5 -4 10 -10 10 -6 0 -10
-27 -10 -60z"/>
<path d="M700 3590 c0 -47 4 -80 10 -80 6 0 10 20 10 45 0 33 5 47 19 54 28
16 50 -7 54 -59 l4 -45 1 53 c2 47 -1 54 -23 64 -19 8 -28 8 -40 -2 -13 -11
-15 -8 -15 19 0 17 -4 31 -10 31 -6 0 -10 -33 -10 -80z"/>
<path d="M1115 3660 c-3 -5 -1 -10 4 -10 6 0 11 5 11 10 0 6 -2 10 -4 10 -3 0
-8 -4 -11 -10z"/>
<path d="M2475 3660 c-3 -5 -1 -10 4 -10 6 0 11 5 11 10 0 6 -2 10 -4 10 -3 0
-8 -4 -11 -10z"/>
<path d="M3293 3663 c-7 -2 -13 -11 -13 -19 0 -8 -5 -14 -11 -14 -8 0 -8 -4
-1 -13 6 -7 12 -35 15 -62 l3 -50 2 52 c2 38 7 55 20 62 16 10 16 10 -2 11
-18 0 -18 1 -1 20 18 19 13 24 -12 13z"/>
<path d="M3412 3590 c0 -47 2 -80 4 -74 4 9 13 9 34 1 24 -9 32 -8 49 8 12 10
21 30 21 45 0 15 -9 35 -21 45 -17 16 -25 17 -49 8 -28 -10 -29 -10 -33 21 -2
17 -4 -7 -5 -54z m93 -20 c0 -12 -9 -29 -20 -36 -18 -12 -24 -11 -43 2 -12 8
-22 24 -22 34 0 10 10 26 22 34 19 13 25 14 43 2 11 -7 20 -24 20 -36z"/>
<path d="M3695 3660 c-3 -5 -1 -10 4 -10 6 0 11 5 11 10 0 6 -2 10 -4 10 -3 0
-8 -4 -11 -10z"/>
<path d="M3753 3590 c0 -47 2 -66 4 -42 2 23 2 61 0 85 -2 23 -4 4 -4 -43z"/>
<path d="M3900 3640 c0 -28 -1 -29 -25 -18 -19 9 -29 8 -50 -6 -55 -36 -10
-125 50 -98 18 8 25 8 29 -1 2 -7 5 25 5 71 1 45 -1 82 -4 82 -3 0 -5 -13 -5
-30z m-5 -51 c12 -18 -4 -57 -26 -64 -24 -8 -59 19 -59 46 0 26 39 50 61 38
10 -5 21 -14 24 -20z"/>
<path d="M3950 3660 c0 -5 5 -10 10 -10 6 0 10 5 10 10 0 6 -4 10 -10 10 -5 0
-10 -4 -10 -10z"/>
<path d="M4712 3590 c0 -47 2 -80 4 -74 4 9 13 9 34 1 24 -9 32 -8 49 8 12 10
21 30 21 45 0 15 -9 35 -21 45 -17 16 -25 17 -49 8 -28 -10 -29 -10 -33 21 -2
17 -4 -7 -5 -54z m93 -20 c0 -12 -9 -29 -20 -36 -18 -12 -24 -11 -43 2 -12 8
-22 24 -22 34 0 10 10 26 22 34 19 13 25 14 43 2 11 -7 20 -24 20 -36z"/>
<path d="M5300 3640 c0 -33 -2 -35 -32 -19 -35 19 -68 -3 -68 -45 0 -54 46
-86 78 -54 10 10 15 10 22 -2 7 -10 10 12 10 68 0 45 -2 82 -5 82 -3 0 -5 -13
-5 -30z m-9 -52 c8 -14 6 -25 -6 -44 -18 -28 -37 -31 -59 -8 -22 22 -20 50 5
68 25 17 45 12 60 -16z"/>
<path d="M5742 3590 c-1 -51 2 -80 7 -71 7 10 13 11 30 1 29 -15 60 -4 71 26
20 50 -25 98 -69 75 -28 -15 -29 -15 -34 22 -2 17 -4 -6 -5 -53z m93 -1 c16
-50 -31 -83 -66 -48 -10 10 -19 24 -19 29 0 6 9 19 19 29 23 23 58 18 66 -10z"/>
<path d="M5890 3660 c0 -5 5 -10 11 -10 5 0 7 5 4 10 -3 6 -8 10 -11 10 -2 0
-4 -4 -4 -10z"/>
<path d="M5940 3590 c0 -47 4 -80 10 -80 6 0 10 33 10 80 0 47 -4 80 -10 80
-6 0 -10 -33 -10 -80z"/>
<path d="M4364 3585 c11 -41 25 -74 31 -72 5 2 17 27 25 55 9 28 18 53 21 56
3 4 13 -21 22 -54 10 -33 21 -60 25 -60 7 0 24 47 48 133 3 9 1 17 -4 17 -5 0
-15 -27 -22 -60 -7 -33 -16 -60 -19 -60 -4 0 -14 26 -22 57 -8 31 -19 58 -25
60 -6 2 -19 -25 -28 -59 -20 -69 -24 -67 -46 20 -6 23 -14 42 -19 42 -4 0 1
-34 13 -75z"/>
<path d="M5412 3583 l1 -78 7 60 6 60 27 -58 c15 -32 31 -56 36 -53 4 3 16 26
25 51 10 25 22 45 26 45 5 0 11 -24 13 -52 3 -43 4 -38 5 25 1 42 -2 77 -7 77
-4 0 -20 -27 -34 -60 -15 -33 -29 -60 -32 -60 -3 0 -17 27 -32 60 -14 33 -30
60 -34 60 -5 0 -8 -35 -7 -77z"/>
<path d="M862 3614 c-52 -36 -5 -122 53 -96 18 8 25 8 29 -1 2 -7 5 17 5 53 0
36 -3 60 -7 53 -5 -8 -13 -9 -22 -3 -21 13 -32 12 -58 -6z m73 -25 c12 -18 -4
-57 -26 -64 -24 -8 -59 19 -59 46 0 26 39 50 61 38 10 -5 21 -14 24 -20z"/>
<path d="M982 3622 c2 -4 12 -31 22 -60 11 -29 25 -52 30 -52 6 0 21 27 33 60
12 33 18 60 14 60 -4 0 -16 -24 -26 -52 l-19 -53 -18 40 c-9 22 -18 46 -18 53
0 6 -5 12 -11 12 -6 0 -9 -4 -7 -8z"/>
<path d="M1110 3570 c0 -33 4 -60 10 -60 6 0 10 27 10 60 0 33 -4 60 -10 60
-6 0 -10 -27 -10 -60z"/>
<path d="M1171 3565 l1 -60 9 49 c7 47 20 66 46 66 17 0 27 -19 34 -70 l6 -45
2 52 c1 59 -6 67 -61 68 l-38 1 1 -61z"/>
<path d="M1320 3610 c-11 -11 -20 -29 -20 -40 0 -21 33 -60 51 -60 6 0 19 5
30 10 16 9 19 7 19 -14 0 -35 -30 -50 -59 -30 -24 17 -34 16 -23 -3 15 -24 59
-26 81 -4 17 17 21 33 21 91 0 40 -4 70 -10 70 -5 0 -10 -5 -10 -10 0 -7 -6
-7 -19 0 -28 14 -38 13 -61 -10z m64 -3 c12 -9 17 -23 14 -42 -3 -27 -7 -30
-38 -30 -31 0 -35 3 -38 30 -3 26 17 55 38 55 3 0 14 -6 24 -13z"/>
<path d="M1532 3614 c-52 -36 -4 -122 53 -96 15 7 25 8 25 2 0 -6 5 -10 10
-10 6 0 10 27 10 60 0 33 -4 60 -10 60 -5 0 -10 -5 -10 -10 0 -7 -6 -7 -19 0
-26 13 -33 13 -59 -6z m70 -18 c26 -38 -12 -87 -52 -66 -25 13 -27 65 -3 78
18 11 44 5 55 -12z"/>
<path d="M1671 3565 l2 -60 6 48 c13 89 66 90 80 1 l9 -49 1 45 c1 61 -10 74
-58 75 l-41 1 1 -61z"/>
<path d="M1882 3614 c-32 -22 -27 -73 9 -93 24 -13 29 -13 54 3 15 10 24 20
21 23 -3 4 -15 -2 -25 -11 -15 -14 -24 -15 -40 -6 -38 20 -26 40 24 40 51 0
60 18 23 44 -28 20 -38 20 -66 0z m72 -20 c4 -11 -4 -14 -34 -14 -42 0 -52 12
-24 28 21 12 51 4 58 -14z"/>
<path d="M2007 3600 c17 -29 17 -31 0 -60 -21 -34 -9 -42 12 -8 l14 22 17 -22
c26 -32 34 -27 13 8 -17 29 -17 31 0 60 10 17 14 30 8 30 -5 0 -13 -9 -16 -20
-3 -11 -11 -20 -16 -20 -5 0 -14 9 -21 20 -20 32 -31 23 -11 -10z"/>
<path d="M2112 3540 c1 -52 3 -76 5 -54 4 42 4 42 33 31 24 -9 32 -8 49 8 26
23 27 66 3 88 -22 20 -43 22 -60 5 -10 -10 -15 -10 -22 2 -6 10 -9 -17 -8 -80z
m93 30 c0 -12 -9 -29 -20 -36 -18 -12 -24 -11 -43 2 -12 8 -22 24 -22 34 0 10
10 26 22 34 19 13 25 14 43 2 11 -7 20 -24 20 -36z"/>
<path d="M2272 3614 c-32 -22 -27 -73 9 -93 24 -13 29 -13 54 3 15 10 24 20
21 23 -3 4 -15 -2 -25 -11 -15 -14 -24 -15 -40 -6 -38 20 -26 40 24 40 51 0
60 18 23 44 -28 20 -38 20 -66 0z m72 -20 c4 -11 -4 -14 -34 -14 -42 0 -52 12
-24 28 21 12 51 4 58 -14z"/>
<path d="M2390 3570 c0 -33 4 -60 10 -60 6 0 10 21 10 46 0 37 4 47 20 51 11
3 20 9 20 14 0 13 -14 11 -28 -3 -9 -9 -12 -9 -12 0 0 7 -4 12 -10 12 -6 0
-10 -27 -10 -60z"/>
<path d="M2470 3570 c0 -33 4 -60 10 -60 6 0 10 27 10 60 0 33 -4 60 -10 60
-6 0 -10 -27 -10 -60z"/>
<path d="M2540 3610 c-11 -11 -20 -29 -20 -40 0 -25 34 -60 58 -60 23 0 59 26
50 35 -4 4 -14 0 -23 -9 -19 -19 -21 -19 -46 -6 -36 20 -23 40 26 40 38 0 45
3 45 20 0 20 -27 40 -54 40 -9 0 -25 -9 -36 -20z m61 0 c31 -17 22 -30 -21
-30 -42 0 -52 12 -22 29 21 13 20 13 43 1z"/>
<path d="M2660 3570 c0 -33 4 -60 10 -60 6 0 10 20 10 44 0 25 5 48 11 52 8 4
7 9 -2 15 -25 16 -29 9 -29 -51z"/>
<path d="M2728 3614 c17 -12 22 -25 22 -60 0 -24 5 -44 10 -44 6 0 10 20 10
43 0 45 -21 77 -51 77 -8 0 -5 -6 9 -16z"/>
<path d="M2822 3614 c-32 -22 -27 -73 9 -93 24 -13 29 -13 54 3 15 10 24 20
22 23 -3 3 -16 -2 -28 -11 -31 -21 -59 -5 -59 34 0 38 29 56 56 35 29 -22 42
-17 15 5 -28 24 -40 25 -69 4z"/>
<path d="M2950 3610 c-11 -11 -20 -29 -20 -40 0 -25 34 -60 58 -60 23 0 59 26
50 35 -4 4 -14 0 -23 -9 -19 -19 -21 -19 -46 -6 -36 20 -23 40 26 40 38 0 45
3 45 20 0 20 -27 40 -54 40 -9 0 -25 -9 -36 -20z m61 0 c31 -17 22 -30 -21
-30 -42 0 -52 12 -22 29 21 13 20 13 43 1z"/>
<path d="M3152 3614 c-32 -22 -30 -69 4 -91 24 -15 29 -15 53 -2 36 20 41 71
9 93 -28 20 -38 20 -66 0z m73 -44 c0 -12 -9 -29 -20 -36 -18 -12 -24 -11 -43
2 -12 8 -22 24 -22 34 0 10 10 26 22 34 19 13 25 14 43 2 11 -7 20 -24 20 -36z"/>
<path d="M3550 3592 c0 -63 45 -103 78 -70 9 9 12 9 12 0 0 -7 5 -12 10 -12 6
0 10 27 10 60 0 33 -4 60 -10 60 -5 0 -10 -20 -10 -44 0 -86 -62 -89 -68 -2
-4 55 -22 62 -22 8z"/>
<path d="M3703 3570 c0 -36 2 -50 4 -32 2 17 2 47 0 65 -2 17 -4 3 -4 -33z"/>
<path d="M3950 3570 c0 -33 4 -60 10 -60 6 0 10 27 10 60 0 33 -4 60 -10 60
-6 0 -10 -27 -10 -60z"/>
<path d="M4011 3565 l2 -60 6 48 c13 89 66 90 80 1 l9 -49 1 45 c1 61 -10 74
-58 75 l-41 1 1 -61z"/>
<path d="M4162 3614 c-52 -36 -4 -122 53 -96 23 11 25 9 25 -13 0 -34 -29 -48
-63 -30 -15 8 -27 10 -27 5 0 -12 34 -30 54 -30 9 0 25 9 36 20 16 16 20 33
20 90 0 40 -4 70 -10 70 -5 0 -10 -5 -10 -10 0 -7 -6 -7 -19 0 -26 13 -33 13
-59 -6z m59 -4 c30 -17 23 -70 -11 -82 -40 -14 -69 49 -38 80 15 15 24 15 49
2z"/>
<path d="M4580 3610 c-11 -11 -20 -29 -20 -40 0 -25 34 -60 58 -60 23 0 59 26
50 35 -4 4 -14 0 -23 -9 -19 -19 -21 -19 -46 -6 -36 20 -23 40 26 40 38 0 45
3 45 20 0 20 -27 40 -54 40 -9 0 -25 -9 -36 -20z m61 0 c31 -17 22 -30 -21
-30 -42 0 -52 12 -22 29 21 13 20 13 43 1z"/>
<path d="M4932 3614 c-52 -36 -5 -122 53 -96 18 8 25 8 29 -1 2 -7 5 17 5 53
0 36 -3 60 -7 53 -5 -8 -13 -9 -22 -3 -21 13 -32 12 -58 -6z m73 -25 c12 -18
-4 -57 -26 -64 -24 -8 -59 19 -59 46 0 26 39 50 61 38 10 -5 21 -14 24 -20z"/>
<path d="M5060 3569 c0 -33 4 -59 10 -59 6 0 10 20 10 44 0 88 60 88 71 0 l6
-49 1 52 c2 58 -5 66 -60 69 l-38 2 0 -59z"/>
<path d="M5610 3610 c-11 -11 -20 -29 -20 -40 0 -26 34 -60 60 -60 26 0 60 34
60 60 0 26 -34 60 -60 60 -11 0 -29 -9 -40 -20z m64 -3 c12 -9 17 -23 14 -42
-3 -27 -7 -30 -38 -30 -31 0 -35 3 -38 30 -3 26 17 55 38 55 3 0 14 -6 24 -13z"/>
<path d="M5893 3570 c0 -36 2 -50 4 -32 2 17 2 47 0 65 -2 17 -4 3 -4 -33z"/>
<path d="M6012 3614 c-32 -22 -27 -73 9 -93 24 -13 29 -13 54 3 15 10 24 20
21 23 -3 4 -15 -2 -25 -11 -15 -14 -24 -15 -40 -6 -38 20 -26 40 24 40 51 0
60 18 23 44 -28 20 -38 20 -66 0z m72 -20 c4 -11 -4 -14 -34 -14 -42 0 -52 12
-24 28 21 12 51 4 58 -14z"/>
<path d="M1153 3260 c0 -47 2 -66 4 -42 2 23 2 61 0 85 -2 23 -4 4 -4 -43z"/>
<path d="M1200 3330 c0 -5 5 -10 10 -10 6 0 10 5 10 10 0 6 -4 10 -10 10 -5 0
-10 -4 -10 -10z"/>
<path d="M1620 3330 c0 -5 5 -10 11 -10 5 0 7 5 4 10 -3 6 -8 10 -11 10 -2 0
-4 -4 -4 -10z"/>
<path d="M2310 3330 c0 -5 5 -10 11 -10 5 0 7 5 4 10 -3 6 -8 10 -11 10 -2 0
-4 -4 -4 -10z"/>
<path d="M2440 3260 c0 -47 4 -80 10 -80 6 0 10 20 10 45 0 33 5 47 19 54 28
16 50 -7 54 -59 l4 -45 1 53 c2 47 -1 54 -23 64 -19 8 -28 8 -40 -2 -13 -11
-15 -8 -15 19 0 17 -4 31 -10 31 -6 0 -10 -33 -10 -80z"/>
<path d="M3525 3330 c-3 -5 -1 -10 4 -10 6 0 11 5 11 10 0 6 -2 10 -4 10 -3 0
-8 -4 -11 -10z"/>
<path d="M3878 3321 c-15 -21 -12 -141 3 -141 5 0 9 25 9 55 0 37 4 55 13 55
8 0 8 3 -2 9 -12 8 -12 12 -2 25 8 10 9 16 3 16 -6 0 -17 -8 -24 -19z"/>
<path d="M4930 3260 c0 -47 4 -80 10 -80 6 0 10 12 10 27 l0 27 28 -27 c38
-37 53 -34 17 3 l-29 30 29 30 c36 37 21 40 -17 3 l-28 -27 0 47 c0 26 -4 47
-10 47 -6 0 -10 -33 -10 -80z"/>
<path d="M5610 3310 c0 -33 -2 -35 -32 -19 -35 19 -68 -3 -68 -45 0 -54 46
-86 78 -54 10 10 15 10 22 -2 7 -10 10 12 10 68 0 45 -2 82 -5 82 -3 0 -5 -13
-5 -30z m-9 -52 c8 -14 6 -25 -6 -44 -18 -28 -37 -31 -59 -8 -22 22 -20 50 5
68 25 17 45 12 60 -16z"/>
<path d="M5943 3260 c0 -61 1 -73 6 -45 9 53 17 65 46 65 25 0 30 -10 38 -75
2 -17 5 -8 6 22 1 59 -18 79 -63 67 -21 -5 -25 -2 -29 23 -2 15 -4 -10 -4 -57z"/>
<path d="M6770 3260 c0 -47 4 -80 10 -80 6 0 10 33 10 80 0 47 -4 80 -10 80
-6 0 -10 -33 -10 -80z"/>
<path d="M1539 3313 c-5 -83 10 -133 39 -133 16 1 16 1 0 11 -13 7 -18 23 -18
54 0 33 4 45 18 48 16 4 16 5 0 6 -10 0 -18 8 -18 16 0 21 -20 19 -21 -2z"/>
<path d="M2371 3318 c0 -10 -6 -18 -12 -18 -8 0 -8 -4 -1 -13 6 -7 12 -33 14
-57 2 -36 7 -45 23 -48 18 -2 18 -2 3 8 -12 7 -18 24 -18 50 0 27 6 42 18 49
15 9 15 10 0 11 -9 0 -19 8 -21 18 -4 16 -5 16 -6 0z"/>
<path d="M2700 3270 c-4 -53 -8 -65 -24 -68 -10 -2 -22 2 -27 9 -4 7 -11 11
-14 7 -8 -7 23 -38 38 -38 31 1 38 17 35 86 l-4 69 -4 -65z"/>
<path d="M3198 3319 c-30 -17 -22 -48 16 -64 44 -19 54 -35 31 -51 -16 -12
-22 -12 -42 1 -13 9 -23 11 -23 6 0 -20 41 -34 66 -22 38 17 26 71 -17 71 -9
0 -23 7 -30 16 -11 14 -10 18 6 30 16 12 22 12 42 -1 13 -9 23 -11 23 -6 0 11
-32 31 -47 31 -4 0 -16 -5 -25 -11z"/>
<path d="M3729 3313 c-3 -50 4 -109 13 -120 6 -7 18 -13 27 -13 14 1 14 2 -1
11 -13 7 -18 23 -18 54 0 33 4 45 18 48 16 4 16 5 0 6 -10 0 -18 8 -18 16 0
21 -20 19 -21 -2z"/>
<path d="M5859 3313 c-5 -83 10 -133 39 -133 16 1 16 1 0 11 -13 7 -18 23 -18
54 0 33 4 45 18 48 16 4 16 5 0 6 -10 0 -18 8 -18 16 0 21 -20 19 -21 -2z"/>
<path d="M718 3289 c-13 -7 -18 -22 -18 -50 0 -33 4 -41 26 -51 20 -9 30 -9
46 1 17 11 22 10 29 -1 5 -8 9 12 9 52 0 45 -3 60 -10 50 -7 -12 -12 -12 -22
-2 -14 14 -37 15 -60 1z m73 -31 c8 -14 6 -25 -6 -44 -18 -28 -37 -31 -59 -8
-22 22 -20 50 5 68 25 17 45 12 60 -16z"/>
<path d="M850 3210 c0 -53 4 -90 10 -90 6 0 10 18 10 40 0 38 1 39 24 29 30
-14 63 2 72 35 12 49 -34 89 -76 66 -13 -7 -20 -7 -20 0 0 5 -4 10 -10 10 -6
0 -10 -37 -10 -90z m98 27 c-3 -29 -6 -32 -38 -32 -32 0 -35 3 -38 33 -3 26 1
34 20 41 36 14 60 -4 56 -42z"/>
<path d="M1002 3210 c1 -52 3 -76 5 -52 5 46 5 47 34 31 44 -23 89 25 69 75
-11 30 -42 41 -71 26 -17 -10 -23 -9 -30 1 -5 8 -8 -25 -7 -81z m93 49 c16
-50 -31 -83 -66 -48 -10 10 -19 24 -19 29 0 6 9 19 19 29 23 23 58 18 66 -10z"/>
<path d="M1200 3240 c0 -33 4 -60 10 -60 6 0 10 27 10 60 0 33 -4 60 -10 60
-6 0 -10 -27 -10 -60z"/>
<path d="M1272 3284 c-32 -22 -27 -73 9 -93 24 -13 29 -13 54 3 15 10 24 20
22 23 -3 3 -16 -2 -28 -11 -31 -21 -59 -5 -59 34 0 38 29 56 56 35 29 -22 42
-17 15 5 -28 24 -40 25 -69 4z"/>
<path d="M1400 3280 c-11 -11 -20 -29 -20 -40 0 -21 33 -60 51 -60 6 0 19 5
30 10 13 7 19 7 19 0 0 -5 5 -10 10 -10 6 0 10 27 10 60 0 33 -4 60 -10 60 -5
0 -10 -5 -10 -10 0 -7 -6 -7 -19 0 -28 14 -38 13 -61 -10z m80 -40 c0 -36 -30
-56 -60 -40 -29 16 -27 68 3 79 32 13 57 -4 57 -39z"/>
<path d="M1623 3240 c0 -36 2 -50 4 -32 2 17 2 47 0 65 -2 17 -4 3 -4 -33z"/>
<path d="M1692 3284 c-22 -15 -30 -57 -14 -80 27 -42 102 -15 102 36 0 28 -29
60 -55 60 -6 0 -21 -7 -33 -16z m69 -25 c11 -21 -2 -54 -23 -62 -22 -7 -47 4
-53 24 -18 57 48 90 76 38z"/>
<path d="M1810 3240 c0 -33 4 -60 10 -60 6 0 10 20 10 44 0 25 5 48 11 52 8 4
7 9 -2 15 -25 16 -29 9 -29 -51z"/>
<path d="M1878 3284 c17 -12 22 -25 22 -60 0 -24 5 -44 10 -44 6 0 10 20 10
43 0 45 -21 77 -51 77 -8 0 -5 -6 9 -16z"/>
<path d="M1965 3286 c-25 -18 -13 -43 24 -51 32 -7 42 -29 18 -38 -8 -3 -20
-1 -28 4 -23 15 -35 9 -15 -6 26 -19 41 -19 61 2 16 16 16 18 -5 35 -12 10
-28 18 -36 18 -16 0 -19 26 -4 35 5 3 19 1 30 -5 11 -6 20 -7 20 -1 0 8 -23
21 -39 21 -4 0 -16 -6 -26 -14z"/>
<path d="M2121 3296 c-2 -18 33 -116 41 -116 4 0 13 20 20 45 7 25 15 45 19
45 4 0 12 -20 18 -45 6 -25 15 -45 20 -45 11 0 45 109 37 117 -3 3 -10 -15
-17 -41 -6 -25 -15 -46 -19 -46 -4 0 -13 20 -19 45 -6 25 -15 45 -20 45 -5 0
-15 -22 -22 -50 -12 -46 -28 -59 -29 -22 -1 19 -28 82 -29 68z"/>
<path d="M2313 3240 c0 -36 2 -50 4 -32 2 17 2 47 0 65 -2 17 -4 3 -4 -33z"/>
<path d="M2770 3280 c-11 -11 -20 -29 -20 -40 0 -21 33 -60 51 -60 6 0 19 5
30 10 13 7 19 7 19 0 0 -5 5 -10 10 -10 6 0 10 27 10 60 0 33 -4 60 -10 60 -5
0 -10 -5 -10 -10 0 -7 -6 -7 -19 0 -28 14 -38 13 -61 -10z m80 -40 c0 -36 -30
-56 -60 -40 -29 16 -27 68 3 79 32 13 57 -4 57 -39z"/>
<path d="M2915 3243 c12 -32 27 -59 33 -61 11 -3 58 106 49 115 -4 3 -10 -3
-13 -13 -4 -10 -13 -35 -21 -54 l-15 -35 -20 53 c-10 28 -23 52 -28 52 -5 0 2
-26 15 -57z"/>
<path d="M3048 3289 c-13 -7 -18 -22 -18 -50 0 -33 4 -41 26 -51 20 -9 30 -9
46 1 17 11 22 10 29 -1 5 -8 9 12 9 52 0 45 -3 60 -10 50 -7 -12 -12 -12 -22
-2 -14 14 -37 15 -60 1z m73 -31 c8 -14 6 -25 -6 -44 -18 -28 -37 -31 -59 -8
-22 22 -20 50 5 68 25 17 45 12 60 -16z"/>
<path d="M3320 3280 c-11 -11 -20 -29 -20 -40 0 -25 34 -60 59 -60 20 0 56 29
47 37 -3 3 -12 -2 -21 -11 -19 -19 -21 -19 -46 -6 -36 20 -17 90 25 90 2 0 12
-7 21 -16 9 -9 18 -14 21 -11 9 8 -27 37 -47 37 -10 0 -28 -9 -39 -20z"/>
<path d="M3440 3240 c0 -33 4 -60 10 -60 6 0 10 21 10 46 0 37 4 47 20 51 11
3 20 9 20 14 0 13 -14 11 -28 -3 -9 -9 -12 -9 -12 0 0 7 -4 12 -10 12 -6 0
-10 -27 -10 -60z"/>
<path d="M3520 3240 c0 -33 4 -60 10 -60 6 0 10 27 10 60 0 33 -4 60 -10 60
-6 0 -10 -27 -10 -60z"/>
<path d="M3582 3210 c1 -52 3 -76 5 -52 5 46 5 47 34 31 44 -23 89 25 69 75
-11 30 -42 41 -71 26 -17 -10 -23 -9 -30 1 -5 8 -8 -25 -7 -81z m93 49 c16
-50 -31 -83 -66 -48 -10 10 -19 24 -19 29 0 6 9 19 19 29 23 23 58 18 66 -10z"/>
<path d="M3942 3240 c0 -61 1 -62 8 -21 4 24 14 49 23 56 23 17 21 28 -2 15
-14 -7 -21 -6 -24 3 -3 6 -5 -17 -5 -53z"/>
<path d="M4030 3280 c-11 -11 -20 -29 -20 -40 0 -21 33 -60 51 -60 6 0 19 5
30 10 13 7 19 7 19 0 0 -5 5 -10 10 -10 6 0 10 27 10 60 0 33 -4 60 -10 60 -5
0 -10 -5 -10 -10 0 -7 -6 -7 -19 0 -28 14 -38 13 -61 -10z m80 -40 c0 -36 -30
-56 -60 -40 -29 16 -27 68 3 79 32 13 57 -4 57 -39z"/>
<path d="M4171 3235 l1 -60 9 49 c14 89 67 88 80 -1 l6 -48 2 45 c0 26 5 50
11 56 11 11 4 12 -67 17 l-43 3 1 -61z"/>
<path d="M4318 3284 c17 -12 22 -25 22 -60 0 -24 5 -44 10 -44 6 0 10 20 10
44 0 47 -18 76 -48 76 -13 0 -12 -3 6 -16z"/>
<path d="M4412 3284 c-52 -36 -4 -122 53 -96 14 7 25 16 25 22 0 6 -10 4 -23
-5 -21 -13 -25 -13 -45 1 -31 21 -19 34 34 34 32 0 44 4 44 14 0 16 -37 46
-55 46 -6 0 -21 -7 -33 -16z m68 -24 c0 -6 -19 -10 -42 -10 l-43 1 23 19 c18
15 28 17 43 10 10 -6 19 -15 19 -20z"/>
<path d="M4523 3285 c4 -10 12 -37 18 -62 13 -51 29 -52 42 -2 13 53 23 54 37
5 7 -26 16 -46 20 -46 5 0 17 27 28 60 12 33 17 60 13 60 -5 0 -15 -24 -23
-52 l-15 -53 -15 49 c-8 28 -19 51 -24 53 -5 2 -16 -21 -25 -49 l-16 -53 -13
48 c-7 26 -17 50 -23 54 -7 4 -8 0 -4 -12z"/>
<path d="M4732 3284 c-22 -15 -30 -57 -14 -80 27 -42 102 -15 102 36 0 28 -29
60 -55 60 -6 0 -21 -7 -33 -16z m69 -25 c11 -21 -2 -54 -23 -62 -22 -7 -47 4
-53 24 -18 57 48 90 76 38z"/>
<path d="M4850 3240 c0 -33 4 -60 10 -60 6 0 10 21 10 46 0 37 4 47 20 51 11
3 20 9 20 14 0 13 -14 11 -28 -3 -9 -9 -12 -9 -12 0 0 7 -4 12 -10 12 -6 0
-10 -27 -10 -60z"/>
<path d="M5063 3293 c-27 -10 -13 -43 24 -58 33 -14 35 -17 21 -31 -12 -13
-20 -14 -37 -5 -13 8 -21 8 -21 2 0 -17 49 -25 65 -11 24 20 17 39 -20 54 -19
8 -35 19 -35 24 0 15 25 21 41 11 23 -15 35 -9 15 6 -20 15 -32 17 -53 8z"/>
<path d="M5238 3289 c-13 -7 -18 -22 -18 -50 0 -33 4 -41 26 -51 20 -9 30 -9
46 1 17 11 22 10 29 -1 5 -8 9 12 9 52 0 45 -3 60 -10 50 -7 -12 -12 -12 -22
-2 -14 14 -37 15 -60 1z m73 -31 c8 -14 6 -25 -6 -44 -18 -28 -37 -31 -59 -8
-22 22 -20 50 5 68 25 17 45 12 60 -16z"/>
<path d="M5371 3235 l1 -60 9 49 c7 47 20 66 46 66 17 0 27 -19 34 -70 l6 -45
2 52 c1 59 -6 67 -61 68 l-38 1 1 -61z"/>
<path d="M5730 3280 c-11 -11 -20 -29 -20 -40 0 -26 34 -60 60 -60 26 0 60 34
60 60 0 26 -34 60 -60 60 -11 0 -29 -9 -40 -20z m64 -3 c12 -9 17 -23 14 -42
-3 -27 -7 -30 -38 -30 -31 0 -35 3 -38 30 -3 26 17 55 38 55 3 0 14 -6 24 -13z"/>
<path d="M6090 3280 c-11 -11 -20 -29 -20 -40 0 -25 34 -60 58 -60 23 0 59 26
50 35 -4 4 -14 0 -23 -9 -19 -19 -21 -19 -46 -6 -36 20 -23 40 26 40 38 0 45
3 45 20 0 20 -27 40 -54 40 -9 0 -25 -9 -36 -20z m61 0 c31 -17 22 -30 -21
-30 -42 0 -52 12 -22 29 21 13 20 13 43 1z"/>
<path d="M6223 3240 c0 -46 2 -53 4 -22 3 28 11 47 24 55 25 15 25 31 0 17
-14 -7 -21 -6 -24 3 -3 6 -5 -17 -4 -53z"/>
<path d="M6372 3284 c-32 -22 -27 -73 9 -93 24 -13 29 -13 54 3 15 10 24 20
22 23 -3 3 -16 -2 -28 -11 -31 -21 -59 -5 -59 34 0 38 29 56 56 35 29 -22 42
-17 15 5 -28 24 -40 25 -69 4z"/>
<path d="M6512 3284 c-22 -15 -30 -57 -14 -80 27 -42 102 -15 102 36 0 28 -29
60 -55 60 -6 0 -21 -7 -33 -16z m69 -25 c11 -21 -2 -54 -23 -62 -22 -7 -47 4
-53 24 -18 57 48 90 76 38z"/>
<path d="M6652 3284 c-22 -15 -30 -57 -14 -80 27 -42 102 -15 102 36 0 28 -29
60 -55 60 -6 0 -21 -7 -33 -16z m69 -25 c11 -21 -2 -54 -23 -62 -22 -7 -47 4
-53 24 -18 57 48 90 76 38z"/>
<path d="M700 2930 c0 -47 4 -80 10 -80 6 0 10 33 10 80 0 47 -4 80 -10 80 -6
0 -10 -33 -10 -80z"/>
<path d="M755 3000 c-3 -5 -1 -10 4 -10 6 0 11 5 11 10 0 6 -2 10 -4 10 -3 0
-8 -4 -11 -10z"/>
<path d="M810 2930 c0 -47 4 -80 10 -80 6 0 10 4 10 10 0 6 9 5 24 -1 30 -14
63 2 72 35 12 49 -34 89 -76 66 -18 -10 -20 -8 -20 20 0 16 -4 30 -10 30 -6 0
-10 -33 -10 -80z m98 -23 c-3 -29 -6 -32 -38 -32 -32 0 -35 3 -38 33 -3 26 1
34 20 41 36 14 60 -4 56 -42z"/>
<path d="M1270 3000 c0 -5 5 -10 10 -10 6 0 10 5 10 10 0 6 -4 10 -10 10 -5 0
-10 -4 -10 -10z"/>
<path d="M2020 2980 c0 -28 -1 -29 -25 -18 -19 9 -29 8 -50 -6 -55 -36 -10
-125 50 -98 18 8 25 8 29 -1 2 -7 5 25 5 71 1 45 -1 82 -4 82 -3 0 -5 -13 -5
-30z m-5 -51 c12 -18 -4 -57 -26 -64 -24 -8 -59 19 -59 46 0 26 39 50 61 38
10 -5 21 -14 24 -20z"/>
<path d="M2130 2930 c0 -47 4 -80 10 -80 6 0 10 33 10 80 0 47 -4 80 -10 80
-6 0 -10 -33 -10 -80z"/>
<path d="M763 2910 c0 -36 2 -50 4 -32 2 17 2 47 0 65 -2 17 -4 3 -4 -33z"/>
<path d="M962 2910 c0 -61 1 -62 8 -21 4 24 14 49 23 56 23 17 21 28 -2 15
-14 -7 -21 -6 -24 3 -3 6 -5 -17 -5 -53z"/>
<path d="M1058 2959 c-13 -7 -18 -22 -18 -50 0 -33 4 -41 26 -51 20 -9 30 -9
46 1 17 11 22 10 29 -1 5 -8 9 12 9 52 0 45 -3 60 -10 50 -7 -12 -12 -12 -22
-2 -14 14 -37 15 -60 1z m73 -31 c8 -14 6 -25 -6 -44 -18 -28 -37 -31 -59 -8
-22 22 -20 50 5 68 25 17 45 12 60 -16z"/>
<path d="M1192 2910 c0 -61 1 -62 8 -21 4 24 14 49 23 56 23 17 21 28 -2 15
-14 -7 -21 -6 -24 3 -3 6 -5 -17 -5 -53z"/>
<path d="M1270 2910 c0 -33 4 -60 10 -60 6 0 10 27 10 60 0 33 -4 60 -10 60
-6 0 -10 -27 -10 -60z"/>
<path d="M1342 2954 c-32 -22 -27 -73 9 -93 24 -13 29 -13 54 3 15 10 24 20
21 23 -3 4 -15 -2 -25 -11 -15 -14 -24 -15 -40 -6 -38 20 -26 40 24 40 51 0
60 18 23 44 -28 20 -38 20 -66 0z m72 -20 c4 -11 -4 -14 -34 -14 -42 0 -52 12
-24 28 21 12 51 4 58 -14z"/>
<path d="M1472 2958 c-21 -21 -13 -37 23 -52 19 -8 35 -19 35 -24 0 -16 -32
-23 -47 -11 -7 7 -16 10 -18 7 -12 -12 26 -30 50 -24 39 10 33 43 -12 61 -34
15 -36 17 -20 32 13 13 20 15 29 5 17 -17 33 -15 18 3 -15 18 -42 19 -58 3z"/>
<path d="M1652 2954 c-52 -36 -4 -122 53 -96 15 7 25 8 25 2 0 -6 5 -10 10
-10 6 0 10 27 10 60 0 33 -4 60 -10 60 -5 0 -10 -5 -10 -10 0 -7 -6 -7 -19 0
-26 13 -33 13 -59 -6z m70 -18 c26 -38 -12 -87 -52 -66 -25 13 -27 65 -3 78
18 11 44 5 55 -12z"/>
<path d="M1780 2910 c0 -33 4 -60 10 -60 6 0 10 20 10 44 0 25 5 48 11 52 8 4
7 9 -2 15 -25 16 -29 9 -29 -51z"/>
<path d="M1848 2954 c17 -12 22 -25 22 -60 0 -24 5 -44 10 -44 6 0 10 20 10
43 0 45 -21 77 -51 77 -8 0 -5 -6 9 -16z"/>
<path d="M2202 2954 c-52 -36 -4 -122 53 -96 15 7 25 8 25 2 0 -6 5 -10 10
-10 6 0 10 27 10 60 0 33 -4 60 -10 60 -5 0 -10 -5 -10 -10 0 -7 -6 -7 -19 0
-26 13 -33 13 -59 -6z m70 -18 c26 -38 -12 -87 -52 -66 -25 13 -27 65 -3 78
18 11 44 5 55 -12z"/>
<path d="M2341 2905 l2 -60 6 48 c13 89 66 90 80 1 l9 -49 1 45 c1 61 -10 74
-58 75 l-41 1 1 -61z"/>
<path d="M2492 2954 c-52 -36 -4 -122 53 -96 23 11 25 9 25 -13 0 -34 -29 -48
-63 -30 -15 8 -27 10 -27 5 0 -12 34 -30 54 -30 9 0 25 9 36 20 16 16 20 33
20 90 0 40 -4 70 -10 70 -5 0 -10 -5 -10 -10 0 -7 -6 -7 -19 0 -26 13 -33 13
-59 -6z m59 -4 c30 -17 23 -70 -11 -82 -40 -14 -69 49 -38 80 15 15 24 15 49
2z"/>
<path d="M2620 2932 c0 -63 45 -103 78 -70 9 9 12 9 12 0 0 -7 5 -12 10 -12 6
0 10 27 10 60 0 33 -4 60 -10 60 -5 0 -10 -20 -10 -44 0 -86 -62 -89 -68 -2
-4 55 -22 62 -22 8z"/>
<path d="M2782 2954 c-52 -36 -4 -122 53 -96 15 7 25 8 25 2 0 -6 5 -10 10
-10 6 0 10 27 10 60 0 33 -4 60 -10 60 -5 0 -10 -5 -10 -10 0 -7 -6 -7 -19 0
-26 13 -33 13 -59 -6z m70 -18 c26 -38 -12 -87 -52 -66 -25 13 -27 65 -3 78
18 11 44 5 55 -12z"/>
<path d="M2932 2954 c-52 -36 -4 -122 53 -96 22 10 25 9 25 -8 0 -18 -24 -50
-38 -50 -4 0 -18 7 -30 16 -13 9 -22 11 -22 4 0 -20 48 -34 75 -22 24 11 25
16 25 94 0 46 -4 78 -8 71 -5 -8 -13 -9 -22 -3 -21 13 -32 12 -58 -6z m62 -10
c22 -22 20 -50 -6 -68 -19 -13 -25 -14 -43 -2 -27 18 -31 43 -9 67 21 23 37
24 58 3z"/>
<path d="M3082 2954 c-52 -36 -4 -122 53 -96 14 7 25 16 25 22 0 6 -10 4 -23
-5 -21 -13 -25 -13 -45 1 -31 21 -19 34 34 34 32 0 44 4 44 14 0 16 -37 46
-55 46 -6 0 -21 -7 -33 -16z m68 -24 c0 -6 -19 -10 -42 -10 l-43 1 23 19 c18
15 28 17 43 10 10 -6 19 -15 19 -20z"/>
<path d="M3213 2963 c-27 -10 -13 -43 24 -58 33 -14 35 -17 21 -31 -12 -13
-20 -14 -37 -5 -13 8 -21 8 -21 2 0 -17 49 -25 65 -11 24 20 17 39 -20 54 -19
8 -35 19 -35 24 0 15 25 21 41 11 23 -15 35 -9 15 6 -20 15 -32 17 -53 8z"/>
<path d="M9060 555 l-54 -55 54 -55 c29 -30 58 -52 63 -48 5 3 -13 27 -39 54
l-48 49 48 49 c26 27 44 51 39 54 -5 4 -34 -18 -63 -48z"/>
<path d="M10687 603 c-4 -4 14 -28 40 -55 l47 -48 -48 -49 c-26 -27 -44 -51
-39 -54 5 -4 34 19 64 49 l54 54 -56 55 c-30 31 -58 52 -62 48z"/>
<path d="M9444 593 c-65 -12 -90 -111 -41 -160 19 -19 36 -26 67 -26 58 0 93
35 93 93 0 64 -53 105 -119 93z m76 -43 c43 -43 11 -120 -50 -120 -38 0 -70
32 -70 70 0 38 32 70 70 70 17 0 39 -9 50 -20z"/>
<path d="M9865 591 c-64 -27 -81 -110 -32 -158 60 -61 162 -19 162 67 0 66
-72 116 -130 91z"/>
<path d="M10305 591 c-64 -27 -81 -110 -32 -158 60 -61 162 -19 162 67 0 66
-72 116 -130 91z"/>
</g>
</svg>
